<?xml version="1.0" standalone="no"?>
<!DOCTYPE svg PUBLIC "-//W3C//DTD SVG 20010904//EN"
 "http://www.w3.org/TR/2001/REC-SVG-20010904/DTD/svg10.dtd">
<svg version="1.0" xmlns="http://www.w3.org/2000/svg"
 width="1000.000000pt" height="1000.000000pt" viewBox="0 0 1000.000000 1000.000000"
 preserveAspectRatio="xMidYMid meet">

<g transform="translate(0.000000,1000.000000) scale(0.100000,-0.100000)"
fill="#000000" stroke="none">
<path d="M4755 9599 c-598 -29 -1206 -185 -1753 -449 -842 -407 -1530 -1049
-2005 -1872 -745 -1290 -801 -2920 -147 -4276 407 -842 1049 -1530 1872 -2005
1290 -745 2920 -801 4276 -147 842 407 1530 1049 2005 1872 745 1290 801 2920
147 4276 -229 474 -519 882 -895 1257 -819 819 -1878 1287 -3040 1345 -218 11
-226 11 -460 -1z m761 -408 c954 -124 1800 -538 2468 -1207 616 -615 1025
-1401 1175 -2254 47 -271 56 -380 56 -730 0 -350 -9 -459 -56 -730 -150 -853
-559 -1639 -1175 -2254 -615 -616 -1401 -1025 -2254 -1175 -271 -47 -380 -56
-730 -56 -350 0 -459 9 -730 56 -853 150 -1639 559 -2254 1175 -616 615 -1025
1401 -1175 2254 -47 271 -56 380 -56 730 0 350 9 459 56 730 150 853 559 1639
1175 2254 677 678 1557 1103 2504 1210 207 24 205 24 530 21 240 -2 339 -7
466 -24z"/>
<path d="M7730 6932 c0 -5 -46 -12 -102 -16 -56 -3 -105 -10 -108 -15 -3 -5
-31 -12 -62 -16 -32 -4 -58 -11 -58 -15 0 -4 -20 -11 -45 -14 -25 -4 -45 -11
-45 -15 0 -5 -20 -12 -45 -15 -25 -4 -45 -11 -45 -15 0 -5 -18 -11 -40 -15
-22 -3 -40 -10 -40 -15 0 -5 -16 -12 -35 -15 -19 -4 -35 -11 -35 -15 0 -5 -18
-11 -40 -15 -22 -3 -40 -10 -40 -15 0 -5 -13 -12 -30 -16 -16 -4 -30 -11 -30
-16 0 -5 -7 -9 -15 -9 -9 0 -18 -6 -21 -14 -3 -8 -19 -18 -35 -21 -16 -4 -29
-10 -29 -15 0 -5 -13 -11 -30 -15 -16 -4 -30 -11 -30 -16 0 -5 -11 -11 -25
-15 -14 -3 -25 -10 -25 -15 0 -5 -7 -9 -15 -9 -9 0 -18 -6 -21 -14 -3 -8 -16
-17 -30 -20 -13 -4 -24 -10 -24 -15 0 -5 -13 -12 -29 -16 -16 -3 -32 -13 -35
-21 -3 -8 -12 -14 -21 -14 -8 0 -15 -4 -15 -9 0 -5 -10 -13 -22 -16 -11 -4
-31 -17 -42 -29 -12 -13 -29 -25 -38 -29 -10 -3 -18 -11 -18 -16 0 -5 -10 -13
-22 -16 -11 -4 -31 -18 -43 -31 -12 -13 -26 -24 -30 -24 -4 0 -23 -16 -42 -35
-19 -19 -38 -35 -44 -35 -5 0 -29 -20 -52 -45 -24 -25 -47 -45 -51 -45 -9 0
-316 -305 -316 -315 0 -4 -20 -27 -45 -52 -25 -24 -45 -49 -45 -54 0 -5 -18
-26 -40 -48 -22 -21 -40 -43 -40 -48 0 -5 -13 -20 -29 -34 -15 -14 -31 -34
-35 -46 -4 -12 -13 -24 -21 -27 -8 -3 -15 -12 -15 -21 0 -8 -4 -15 -9 -15 -5
0 -13 -10 -16 -22 -4 -11 -17 -31 -29 -42 -13 -12 -25 -29 -29 -38 -3 -10 -11
-18 -16 -18 -5 0 -12 -11 -15 -25 -4 -14 -10 -25 -15 -25 -5 0 -12 -13 -16
-29 -3 -16 -13 -32 -21 -35 -8 -3 -14 -12 -14 -21 0 -8 -4 -15 -9 -15 -5 0
-12 -11 -15 -25 -4 -14 -10 -25 -15 -25 -5 0 -12 -13 -16 -30 -4 -16 -10 -30
-15 -30 -5 0 -11 -13 -15 -30 -4 -16 -10 -30 -15 -30 -5 0 -11 -13 -15 -30 -4
-16 -10 -30 -15 -30 -5 0 -11 -13 -15 -30 -4 -16 -10 -30 -15 -30 -5 0 -11
-13 -15 -30 -4 -16 -10 -30 -15 -30 -5 0 -11 -13 -15 -30 -4 -16 -10 -30 -15
-30 -4 0 -10 -18 -14 -40 -3 -22 -10 -40 -16 -40 -5 0 -12 -20 -16 -45 -3 -25
-10 -45 -15 -45 -4 0 -11 -16 -15 -35 -3 -19 -10 -35 -14 -35 -4 0 -11 -25
-15 -55 -3 -30 -10 -55 -15 -55 -4 0 -11 -28 -15 -62 -4 -35 -12 -66 -19 -70
-16 -10 -16 -496 0 -506 6 -4 15 -31 19 -59 4 -29 10 -53 15 -53 4 0 11 -16
14 -35 4 -19 11 -35 16 -35 4 0 11 -14 15 -30 4 -17 11 -30 16 -30 5 0 11 -11
15 -24 3 -14 12 -27 20 -30 8 -3 14 -10 14 -16 0 -13 123 -140 135 -140 4 0
18 -11 30 -24 12 -13 32 -27 43 -31 12 -3 22 -11 22 -16 0 -5 7 -9 15 -9 9 0
18 -6 21 -14 3 -7 23 -16 44 -20 21 -3 40 -11 42 -16 2 -6 29 -14 61 -17 31
-3 57 -10 57 -14 0 -5 47 -9 105 -9 58 0 105 4 105 9 0 4 41 11 92 15 50 3 94
10 97 15 3 4 36 12 74 15 37 4 67 11 67 16 0 5 20 12 45 16 25 3 45 10 45 14
0 4 16 11 35 14 19 4 35 11 35 15 0 5 18 11 40 15 22 3 40 10 40 15 0 5 14 12
30 16 17 4 30 10 30 15 0 5 14 11 30 15 17 4 30 10 30 15 0 5 14 11 30 15 17
4 30 10 30 15 0 5 13 11 29 15 16 3 32 13 35 21 3 8 12 14 21 14 8 0 15 4 15
9 0 5 11 12 25 15 14 4 25 11 25 16 0 6 7 10 15 10 9 0 18 6 21 14 3 8 16 17
30 20 13 4 24 11 24 16 0 6 6 10 13 10 7 0 20 9 30 20 9 11 24 20 32 20 8 0
15 5 15 10 0 6 8 14 18 17 9 4 27 17 39 30 12 13 26 23 32 23 5 0 23 14 39 30
17 17 34 30 38 30 4 0 22 16 41 35 19 19 38 35 43 35 6 0 36 27 68 60 33 33
62 60 66 60 4 0 26 18 49 40 139 133 217 212 217 220 0 4 27 35 60 68 33 33
60 64 60 68 0 4 16 22 35 41 19 19 35 39 35 46 1 7 14 23 30 37 17 13 30 28
30 33 0 6 11 20 24 32 13 12 27 31 30 43 4 11 13 23 21 26 8 3 15 11 15 17 0
6 11 22 24 34 13 12 27 31 30 43 4 11 13 23 21 26 8 3 15 12 15 21 0 8 4 15
10 15 5 0 12 11 16 24 3 14 12 27 20 30 8 3 14 12 14 21 0 8 4 15 10 15 5 0
12 11 16 24 3 14 12 27 20 30 8 3 14 12 14 21 0 8 4 15 9 15 5 0 13 10 17 22
3 12 13 28 20 36 8 7 14 19 14 27 0 7 7 15 15 19 8 3 15 12 15 21 0 8 4 15 9
15 5 0 12 11 15 25 4 14 10 25 15 25 5 0 12 14 16 30 4 17 11 30 16 30 5 0 9
7 9 15 0 9 6 18 14 21 8 3 18 19 21 35 4 16 10 29 15 29 5 0 11 14 15 30 4 17
10 30 15 30 5 0 11 14 15 30 4 17 10 30 15 30 5 0 11 14 15 30 4 17 10 30 15
30 5 0 11 14 15 30 4 17 11 30 16 30 5 0 12 18 15 40 4 22 10 40 14 40 5 0 11
14 15 30 4 17 10 30 15 30 5 0 12 20 16 45 3 25 10 45 15 45 4 0 11 16 15 35
3 19 10 35 14 35 5 0 11 24 15 53 4 28 11 55 16 58 5 3 12 30 16 60 3 30 10
57 16 60 14 9 15 258 1 267 -6 4 -15 17 -18 30 -9 28 -143 162 -162 162 -8 0
-14 4 -14 9 0 5 -12 12 -27 16 -15 3 -31 12 -35 18 -5 8 -53 12 -157 11 -132
0 -148 1 -143 15 3 9 12 22 19 29 7 7 13 19 13 27 0 7 7 15 15 19 8 3 15 12
15 20 0 8 5 16 10 18 28 9 23 148 -5 148 -8 0 -15 4 -15 9 0 5 -10 13 -22 17
-13 4 -26 11 -29 16 -3 5 -25 12 -48 15 -22 3 -41 10 -41 14 0 5 -54 9 -120 9
-66 0 -120 -4 -120 -8z m110 -421 c0 -5 -13 -12 -30 -16 -16 -4 -30 -10 -30
-15 0 -4 -18 -10 -40 -14 -22 -3 -40 -11 -40 -16 0 -6 -7 -10 -15 -10 -9 0
-18 -6 -21 -14 -3 -8 -19 -18 -35 -21 -16 -4 -29 -11 -29 -16 0 -5 -11 -11
-24 -15 -14 -3 -27 -12 -30 -20 -3 -8 -12 -14 -21 -14 -8 0 -15 -4 -15 -9 0
-5 -10 -13 -22 -16 -11 -4 -31 -18 -43 -31 -12 -13 -26 -24 -30 -24 -8 0 -29
-17 -63 -52 -9 -10 -20 -18 -25 -18 -11 0 -157 -146 -157 -157 0 -5 -13 -20
-29 -34 -15 -14 -31 -35 -35 -47 -4 -12 -11 -22 -16 -22 -5 0 -11 -13 -15 -30
-4 -16 -11 -30 -15 -30 -5 0 -12 -16 -16 -35 -3 -19 -10 -35 -15 -35 -5 0 -9
-34 -9 -75 0 -41 4 -75 9 -75 5 0 12 -13 16 -30 4 -16 10 -30 15 -30 5 0 12
-9 15 -20 9 -28 163 -180 183 -182 47 -4 50 0 54 73 2 38 9 73 15 77 5 4 13
17 17 29 4 12 16 25 27 28 10 4 19 12 19 20 0 16 237 255 253 255 7 1 23 14
37 30 13 17 28 30 33 30 6 0 20 11 32 24 12 13 32 27 43 31 12 3 22 11 22 16
0 5 7 9 15 9 9 0 18 6 21 14 3 8 19 18 35 21 16 4 29 10 29 15 0 5 14 11 30
15 17 4 30 10 30 15 0 11 94 23 119 15 18 -5 21 -15 21 -61 0 -30 -4 -54 -9
-54 -5 0 -11 -22 -15 -50 -4 -27 -11 -50 -16 -50 -5 0 -13 -18 -16 -40 -4 -22
-10 -40 -14 -40 -5 0 -11 -13 -15 -30 -4 -16 -10 -30 -15 -30 -5 0 -11 -13
-15 -30 -4 -16 -10 -30 -15 -30 -5 0 -11 -13 -15 -30 -4 -16 -10 -30 -15 -30
-5 0 -11 -13 -15 -30 -4 -16 -11 -30 -16 -30 -5 0 -9 -7 -9 -15 0 -9 -6 -18
-14 -21 -8 -3 -18 -19 -21 -35 -4 -16 -10 -29 -15 -29 -4 0 -11 -11 -14 -25
-4 -14 -10 -25 -15 -25 -5 0 -12 -13 -16 -29 -3 -16 -13 -32 -21 -35 -8 -3
-14 -12 -14 -21 0 -8 -4 -15 -10 -15 -5 0 -12 -11 -16 -24 -3 -14 -12 -27 -20
-30 -8 -3 -14 -12 -14 -21 0 -8 -4 -15 -10 -15 -5 0 -12 -11 -16 -24 -3 -14
-12 -27 -20 -30 -8 -3 -14 -12 -14 -21 0 -8 -4 -15 -9 -15 -5 0 -13 -10 -16
-22 -4 -11 -17 -31 -29 -42 -13 -12 -25 -29 -29 -38 -3 -10 -11 -18 -16 -18
-5 0 -13 -10 -17 -22 -4 -13 -17 -33 -30 -45 -13 -12 -24 -26 -24 -32 0 -5
-13 -23 -30 -39 -16 -17 -30 -34 -30 -39 0 -5 -13 -20 -30 -33 -16 -14 -29
-29 -30 -34 0 -4 -25 -33 -55 -62 -30 -30 -55 -58 -55 -63 0 -12 -439 -451
-450 -451 -5 0 -35 -27 -68 -60 -33 -33 -64 -60 -68 -60 -4 0 -22 -16 -41 -35
-19 -19 -38 -35 -44 -35 -5 0 -20 -10 -32 -23 -12 -13 -30 -26 -39 -30 -10 -3
-18 -11 -18 -16 0 -5 -11 -12 -25 -15 -14 -4 -25 -11 -25 -16 0 -6 -7 -10 -15
-10 -9 0 -18 -6 -21 -14 -3 -8 -19 -18 -35 -21 -16 -4 -29 -11 -29 -16 0 -5
-11 -11 -25 -15 -14 -3 -25 -10 -25 -14 0 -5 -13 -11 -30 -15 -16 -4 -30 -10
-30 -15 0 -5 -13 -11 -30 -15 -16 -4 -30 -10 -30 -15 0 -5 -13 -11 -30 -15
-16 -4 -30 -11 -30 -15 0 -5 -16 -12 -35 -16 -19 -3 -35 -10 -35 -14 0 -4 -19
-10 -42 -14 -23 -4 -46 -12 -50 -19 -10 -16 -315 -17 -326 -1 -4 6 -17 14 -29
18 -13 4 -23 12 -23 17 0 5 -7 9 -15 9 -9 0 -19 8 -22 18 -4 9 -13 23 -20 30
-7 7 -13 20 -13 28 0 8 -4 14 -9 14 -5 0 -12 19 -16 43 -4 23 -13 45 -19 49
-14 9 -14 297 1 306 5 4 13 31 16 61 4 30 11 57 16 60 4 3 12 25 16 49 4 23
10 42 15 42 4 0 10 18 14 40 3 22 10 40 15 40 5 0 12 16 15 35 4 19 11 35 15
35 5 0 11 18 15 40 3 22 10 40 15 40 5 0 12 14 16 30 4 17 10 30 15 30 5 0 11
14 15 30 4 17 10 30 15 30 5 0 11 14 15 30 4 17 11 30 16 30 5 0 9 7 9 15 0 9
6 18 14 21 8 3 18 19 21 35 4 16 11 29 16 29 5 0 9 6 9 14 0 8 6 21 14 28 7 8
17 24 20 36 4 12 11 22 16 22 5 0 11 14 15 30 4 17 11 30 16 30 5 0 13 8 16
18 4 9 16 26 29 38 12 11 25 31 29 42 3 12 11 22 16 22 5 0 9 7 9 15 0 9 7 18
15 21 8 3 17 15 21 26 3 12 17 31 30 43 13 12 24 26 24 32 0 5 13 20 30 33 16
14 29 30 30 37 0 7 16 27 35 46 19 19 35 37 35 41 0 4 27 35 60 68 33 33 60
64 60 68 0 12 98 110 110 110 4 0 42 34 83 75 42 41 79 75 83 75 4 0 22 16 41
35 19 19 38 35 44 35 5 0 20 11 33 25 13 14 27 25 32 25 5 0 17 9 27 20 9 11
23 20 31 20 8 0 16 7 20 15 3 8 12 15 21 15 8 0 15 4 15 10 0 5 11 12 24 16
14 3 27 12 30 20 3 8 12 14 21 14 8 0 15 4 15 10 0 5 11 12 24 16 14 3 27 12
30 20 3 8 12 14 21 14 8 0 15 4 15 9 0 5 11 12 25 15 14 4 25 10 25 15 0 5 13
12 29 16 16 3 32 13 35 21 3 8 12 14 21 14 8 0 15 4 15 9 0 5 14 12 30 16 17
4 30 10 30 15 0 5 14 11 30 15 17 4 30 10 30 15 0 4 18 10 40 14 22 3 40 11
40 16 0 5 18 13 40 16 22 4 40 10 40 15 0 4 16 11 35 15 19 3 35 10 35 14 0 5
24 11 53 15 28 4 54 11 57 16 3 5 38 11 78 15 40 4 72 11 72 15 0 5 14 9 30 9
17 0 30 -4 30 -9z"/>
<path d="M3730 6842 c0 -5 -55 -12 -122 -16 -67 -4 -125 -11 -128 -15 -3 -5
-38 -12 -77 -16 -40 -4 -73 -11 -73 -15 0 -4 -34 -11 -75 -15 -41 -4 -75 -10
-75 -15 0 -4 -25 -11 -55 -15 -30 -3 -55 -10 -55 -14 0 -5 -22 -11 -50 -15
-27 -4 -50 -11 -50 -15 0 -5 -25 -12 -55 -16 -30 -3 -55 -10 -55 -15 0 -5 -20
-12 -45 -16 -25 -3 -45 -10 -45 -15 0 -4 -20 -11 -45 -15 -25 -3 -45 -10 -45
-14 0 -4 -16 -11 -35 -14 -19 -4 -35 -11 -35 -15 0 -5 -20 -12 -45 -15 -25 -4
-45 -11 -45 -16 0 -5 -13 -11 -30 -15 -16 -4 -30 -11 -30 -16 0 -5 -18 -12
-40 -15 -22 -4 -40 -10 -40 -15 0 -5 -7 -9 -15 -9 -9 0 -18 -6 -21 -14 -3 -8
-19 -18 -35 -21 -16 -4 -29 -10 -29 -15 0 -5 -13 -11 -30 -15 -17 -4 -30 -10
-30 -15 0 -4 -11 -11 -25 -14 -14 -4 -25 -10 -25 -15 0 -5 -13 -12 -29 -16
-16 -3 -32 -13 -35 -21 -3 -8 -12 -14 -21 -14 -8 0 -15 -4 -15 -9 0 -5 -10
-13 -22 -17 -12 -4 -33 -20 -47 -35 -14 -16 -29 -29 -34 -29 -13 0 -182 -172
-190 -192 -3 -10 -11 -18 -16 -18 -5 0 -12 -11 -15 -25 -4 -14 -11 -25 -16
-25 -5 0 -12 -20 -16 -45 -3 -25 -10 -45 -15 -45 -5 0 -9 -34 -9 -75 0 -41 4
-75 9 -75 5 0 11 -14 15 -30 6 -31 93 -130 114 -130 6 0 12 -6 15 -12 5 -16
226 -16 236 -1 3 6 24 13 45 16 22 4 42 11 45 16 4 5 19 13 34 16 15 4 27 11
27 15 0 4 11 11 25 14 14 4 25 11 25 16 0 6 7 10 15 10 9 0 18 7 21 15 4 8 12
15 19 15 8 0 27 14 44 31 36 35 43 88 14 90 -30 2 -45 -2 -60 -17 -8 -8 -23
-14 -34 -14 -10 0 -19 -4 -19 -10 0 -5 -18 -10 -39 -10 -32 0 -41 4 -47 22 -4
14 -1 25 8 32 8 6 18 21 22 33 4 12 17 25 29 29 11 4 32 20 46 35 14 16 31 29
38 29 7 0 13 4 13 10 0 5 11 12 24 16 14 3 27 12 30 20 3 8 12 14 21 14 8 0
15 4 15 10 0 5 11 12 25 16 14 3 25 10 25 15 0 5 7 9 15 9 9 0 18 6 21 14 3 8
19 18 35 21 16 4 29 10 29 15 0 5 14 11 30 15 17 4 30 10 30 15 0 5 14 11 30
15 17 4 30 10 30 15 0 4 18 10 40 14 22 3 40 10 40 15 0 5 16 12 35 15 19 4
35 11 35 15 0 5 20 12 45 15 25 4 45 11 45 15 0 5 20 12 45 15 25 4 45 11 45
16 0 5 25 12 55 15 30 4 55 11 55 16 0 4 23 11 50 15 28 4 50 10 50 15 0 4 25
11 55 14 30 4 55 11 55 15 0 4 27 11 60 15 33 4 60 11 60 15 0 4 33 11 73 15
39 4 74 11 77 16 3 4 54 11 113 15 59 4 107 11 107 15 0 5 61 9 135 9 74 0
135 -4 135 -8 0 -5 57 -12 127 -15 69 -3 129 -10 132 -15 3 -5 36 -13 74 -16
37 -4 67 -11 67 -16 0 -4 16 -11 35 -14 19 -4 35 -11 35 -15 0 -5 18 -11 40
-15 22 -3 40 -11 40 -16 0 -6 8 -14 18 -17 9 -4 37 -27 62 -52 l45 -44 -1 -80
c0 -45 -5 -82 -12 -86 -6 -3 -14 -19 -17 -34 -4 -15 -11 -27 -16 -27 -5 0 -9
-7 -9 -15 0 -9 -7 -18 -15 -21 -8 -4 -15 -12 -15 -19 0 -8 -13 -27 -30 -43
-16 -17 -30 -34 -30 -37 0 -10 -127 -135 -136 -135 -4 0 -26 -20 -50 -44 -23
-24 -51 -47 -62 -50 -11 -4 -23 -13 -26 -21 -3 -8 -10 -15 -16 -15 -10 0 -21
-8 -55 -37 -7 -7 -19 -13 -25 -13 -6 0 -13 -6 -16 -14 -3 -8 -16 -17 -30 -20
-13 -4 -24 -11 -24 -16 0 -6 -7 -10 -15 -10 -9 0 -18 -6 -21 -14 -3 -8 -16
-17 -30 -20 -13 -4 -24 -10 -24 -15 0 -5 -13 -12 -29 -16 -16 -3 -32 -13 -35
-21 -3 -8 -12 -14 -21 -14 -8 0 -15 -4 -15 -9 0 -5 -13 -12 -30 -16 -16 -4
-30 -10 -30 -15 0 -5 -13 -11 -30 -15 -16 -4 -30 -10 -30 -15 0 -5 -13 -11
-30 -15 -16 -4 -30 -11 -30 -16 0 -5 -18 -12 -40 -15 -22 -4 -40 -10 -40 -14
0 -5 -13 -11 -30 -15 -16 -4 -30 -11 -30 -15 0 -5 -16 -12 -35 -16 -19 -3 -35
-10 -35 -15 0 -5 -18 -12 -40 -15 -22 -4 -40 -10 -40 -15 0 -4 -20 -11 -45
-15 -25 -3 -45 -10 -45 -14 0 -4 -26 -11 -57 -15 -32 -4 -60 -11 -63 -16 -3
-5 -46 -11 -95 -15 -50 -3 -85 -2 -79 3 6 4 14 18 18 31 4 12 12 22 17 22 5 0
9 7 9 15 0 9 7 18 15 21 8 4 15 12 15 20 0 8 9 22 20 31 11 10 20 23 20 30 0
7 4 13 9 13 5 0 13 10 16 22 4 11 17 31 29 42 13 12 25 29 29 39 3 9 11 17 16
17 5 0 12 11 15 25 4 14 11 25 16 25 6 0 10 6 10 13 0 7 9 20 20 30 11 9 20
23 20 31 0 8 7 16 15 20 8 3 15 12 15 21 0 8 4 15 9 15 5 0 13 10 16 22 4 11
17 31 29 42 13 12 25 29 29 39 3 9 11 17 16 17 5 0 12 11 15 25 4 14 11 25 16
25 6 0 10 6 10 13 0 7 9 20 20 30 11 9 20 23 20 31 0 8 7 16 15 20 8 3 15 12
15 21 0 8 4 15 9 15 5 0 13 10 16 22 4 11 18 31 31 43 13 12 24 28 24 34 0 6
6 14 14 17 8 3 17 16 20 30 4 13 10 24 15 24 5 0 12 13 16 29 3 16 13 32 21
35 8 3 14 12 14 20 0 8 5 16 11 18 7 2 12 29 13 63 l1 60 -59 58 c-32 31 -64
57 -72 57 -8 0 -14 5 -14 10 0 6 -28 10 -65 10 -37 0 -65 -4 -65 -10 0 -5 -6
-10 -14 -10 -8 0 -21 -6 -28 -14 -8 -7 -25 -17 -38 -21 -25 -8 -70 -51 -70
-69 -1 -6 -14 -22 -30 -36 -17 -13 -30 -28 -30 -33 0 -6 -11 -20 -24 -32 -13
-12 -27 -31 -30 -43 -4 -11 -13 -23 -21 -26 -8 -3 -15 -11 -15 -17 0 -6 -11
-22 -24 -34 -13 -12 -27 -32 -31 -43 -3 -12 -11 -22 -16 -22 -5 0 -9 -6 -9
-13 0 -7 -9 -20 -20 -30 -11 -9 -20 -23 -20 -31 0 -8 -7 -16 -15 -20 -8 -3
-15 -12 -15 -21 0 -8 -4 -15 -9 -15 -5 0 -13 -10 -16 -22 -4 -11 -17 -31 -29
-42 -13 -12 -25 -29 -29 -38 -3 -10 -11 -18 -16 -18 -5 0 -12 -11 -15 -25 -4
-14 -11 -25 -16 -25 -6 0 -10 -6 -10 -13 0 -7 -9 -20 -20 -30 -11 -9 -20 -23
-20 -31 0 -8 -7 -16 -15 -20 -8 -3 -15 -12 -15 -21 0 -8 -4 -15 -9 -15 -5 0
-13 -10 -16 -22 -4 -11 -17 -31 -29 -42 -13 -12 -25 -29 -29 -38 -3 -10 -11
-18 -16 -18 -5 0 -12 -11 -15 -25 -4 -14 -11 -25 -16 -25 -6 0 -10 -7 -10 -15
0 -9 -7 -18 -15 -21 -8 -4 -15 -12 -15 -20 0 -8 -9 -22 -20 -31 -11 -10 -20
-23 -20 -30 0 -7 -4 -13 -10 -13 -5 0 -12 -11 -16 -24 -3 -14 -12 -27 -20 -30
-8 -3 -14 -12 -14 -21 0 -8 -4 -15 -10 -15 -5 0 -12 -11 -16 -24 -3 -14 -12
-27 -20 -30 -8 -3 -14 -11 -14 -17 0 -6 -11 -22 -24 -34 -13 -12 -27 -32 -31
-43 -3 -12 -10 -22 -15 -22 -4 0 -11 -11 -14 -25 -4 -14 -11 -25 -16 -25 -6 0
-10 -7 -10 -15 0 -9 -6 -18 -14 -21 -8 -3 -17 -16 -20 -30 -4 -13 -11 -24 -16
-24 -6 0 -10 -6 -10 -13 0 -7 -9 -20 -20 -30 -11 -9 -20 -23 -20 -31 0 -8 -7
-16 -15 -20 -8 -3 -15 -12 -15 -21 0 -8 -4 -15 -10 -15 -5 0 -12 -11 -16 -24
-3 -14 -12 -27 -20 -30 -8 -3 -14 -12 -14 -21 0 -8 -4 -15 -10 -15 -5 0 -12
-11 -16 -24 -3 -14 -12 -27 -20 -30 -8 -3 -14 -12 -14 -21 0 -8 -4 -15 -10
-15 -5 0 -12 -11 -16 -24 -3 -14 -12 -27 -20 -30 -8 -3 -14 -12 -14 -21 0 -8
-4 -15 -10 -15 -5 0 -12 -11 -16 -24 -3 -14 -12 -27 -20 -30 -8 -3 -14 -12
-14 -21 0 -8 -4 -15 -10 -15 -5 0 -12 -11 -16 -24 -3 -14 -12 -27 -20 -30 -8
-3 -14 -12 -14 -21 0 -8 -4 -15 -10 -15 -5 0 -12 -11 -16 -24 -3 -14 -12 -27
-20 -30 -8 -3 -14 -12 -14 -21 0 -8 -4 -15 -10 -15 -5 0 -12 -11 -16 -24 -3
-14 -12 -27 -20 -30 -8 -3 -14 -12 -14 -21 0 -8 -4 -15 -10 -15 -5 0 -12 -11
-16 -24 -3 -14 -12 -27 -20 -30 -8 -3 -14 -12 -14 -21 0 -8 -4 -15 -10 -15 -5
0 -12 -11 -16 -24 -3 -14 -12 -27 -20 -30 -8 -3 -14 -12 -14 -21 0 -8 -4 -15
-10 -15 -5 0 -12 -11 -16 -25 -3 -14 -10 -25 -15 -25 -5 0 -9 -7 -9 -15 0 -9
-6 -18 -14 -21 -8 -3 -18 -19 -21 -35 -4 -16 -10 -29 -15 -29 -4 0 -11 -11
-14 -25 -4 -14 -10 -25 -15 -25 -5 0 -12 -13 -16 -30 -4 -16 -10 -30 -15 -30
-5 0 -12 -15 -15 -32 -4 -18 -12 -36 -17 -39 -5 -3 -11 -23 -15 -45 -3 -21
-10 -42 -15 -45 -13 -8 -15 -158 -2 -167 6 -4 13 -15 17 -24 3 -10 13 -18 22
-18 8 0 15 -4 15 -10 0 -6 60 -10 160 -10 88 0 160 4 160 9 0 5 11 12 25 15
33 8 63 38 71 71 3 14 10 25 14 25 5 0 11 13 15 30 4 16 11 30 16 30 5 0 11
11 15 25 3 14 10 25 14 25 5 0 11 13 15 30 4 17 10 30 15 30 5 0 11 13 15 29
3 16 13 32 21 35 8 3 14 12 14 21 0 8 4 15 9 15 5 0 12 11 15 25 4 14 10 25
15 25 5 0 12 14 16 30 4 17 11 30 16 30 5 0 9 7 9 15 0 9 6 18 14 21 8 3 18
19 21 35 4 16 11 29 16 29 5 0 11 11 15 24 3 14 12 27 20 30 8 3 14 12 14 21
0 8 4 15 9 15 5 0 12 11 15 25 4 14 11 25 16 25 6 0 10 7 10 15 0 9 6 18 14
21 8 3 18 19 21 35 4 16 11 29 16 29 5 0 11 11 15 24 3 14 12 27 20 30 8 3 14
12 14 21 0 8 4 15 10 15 5 0 12 11 16 25 3 14 10 25 15 25 5 0 9 7 9 15 0 9 6
18 14 21 8 3 17 16 20 30 4 13 11 24 16 24 6 0 10 7 10 15 0 9 6 18 14 21 8 3
17 16 20 30 4 13 10 24 15 24 5 0 12 13 16 29 3 16 13 32 21 35 8 3 14 12 14
21 0 8 4 15 9 15 5 0 13 9 16 21 4 12 16 30 27 41 17 17 22 18 29 7 5 -8 9
-18 9 -22 0 -4 11 -18 25 -31 14 -13 25 -29 25 -35 0 -6 7 -14 15 -17 8 -3 17
-15 21 -26 3 -12 17 -31 30 -43 13 -12 24 -28 24 -34 0 -6 7 -14 15 -17 8 -3
17 -15 21 -26 3 -12 17 -31 30 -43 13 -12 24 -28 24 -34 0 -6 7 -14 15 -17 8
-4 15 -12 15 -20 0 -8 9 -22 20 -31 11 -10 20 -22 20 -27 0 -5 11 -19 24 -31
13 -12 27 -31 30 -43 4 -11 13 -23 21 -26 8 -3 15 -11 15 -17 0 -6 11 -22 24
-34 13 -12 27 -31 30 -43 4 -11 13 -23 21 -26 8 -3 15 -11 15 -17 0 -6 11 -22
25 -35 14 -13 25 -27 25 -33 0 -5 14 -23 30 -39 17 -17 30 -34 30 -39 0 -5 13
-20 30 -33 16 -14 29 -30 30 -37 0 -6 14 -25 30 -41 17 -17 30 -34 30 -38 0
-4 16 -22 35 -41 19 -19 35 -38 35 -43 0 -6 18 -27 40 -49 22 -21 40 -42 40
-46 0 -9 286 -295 295 -295 4 0 18 -11 30 -24 12 -13 32 -27 43 -31 12 -3 22
-10 22 -15 0 -4 12 -11 27 -15 15 -3 31 -11 34 -17 3 -5 25 -12 48 -15 22 -3
41 -10 41 -14 0 -5 25 -9 55 -9 30 0 55 4 55 9 0 4 20 11 44 13 25 3 52 13 61
22 9 9 20 16 25 16 11 0 200 189 200 200 0 5 7 15 15 23 7 8 17 26 21 41 6 24
4 26 -25 26 -17 0 -31 -4 -31 -10 0 -6 -27 -10 -60 -10 -33 0 -60 4 -60 9 0 5
-13 12 -30 16 -16 4 -30 11 -30 16 0 5 -8 13 -17 16 -10 4 -28 17 -40 30 -12
13 -26 23 -32 23 -11 0 -291 274 -291 285 0 5 -27 34 -60 67 -33 32 -60 62
-60 67 0 5 -20 30 -45 54 -25 25 -45 49 -45 54 0 5 -13 20 -30 33 -16 14 -29
30 -30 37 0 7 -16 27 -35 46 -19 19 -35 38 -35 42 0 4 -11 18 -24 30 -13 12
-27 31 -30 43 -4 11 -13 23 -21 26 -8 3 -15 10 -15 16 0 7 -13 25 -30 42 -16
16 -30 35 -30 41 -1 7 -14 23 -30 37 -17 13 -30 28 -30 33 0 5 -18 27 -40 48
-22 22 -40 43 -40 48 0 5 -20 30 -45 54 -25 25 -45 49 -45 54 0 5 -13 20 -30
33 -16 14 -29 28 -30 32 0 4 27 10 60 14 33 4 60 10 60 15 0 4 25 11 55 14 30
4 55 11 55 15 0 4 23 10 50 14 28 4 50 11 50 15 0 5 20 12 45 15 25 4 45 11
45 15 0 5 20 12 45 15 25 4 45 11 45 15 0 5 18 11 40 15 22 3 40 10 40 15 0 5
16 12 35 15 19 4 35 11 35 15 0 5 18 11 40 15 22 3 40 10 40 16 0 5 16 12 35
16 19 3 35 10 35 15 0 5 7 9 15 9 8 0 15 4 15 9 0 5 14 12 30 16 17 4 30 11
30 15 0 5 16 12 35 16 19 3 35 10 35 14 0 5 13 11 29 15 16 3 32 13 35 21 3 8
12 14 21 14 8 0 15 4 15 9 0 5 14 12 30 16 17 4 30 11 30 16 0 5 11 11 24 15
14 3 27 12 30 20 3 8 12 14 21 14 8 0 15 4 15 9 0 5 11 12 25 15 14 4 25 11
25 16 0 6 7 10 15 10 9 0 18 7 21 15 3 8 15 17 26 21 12 3 31 17 43 30 12 13
26 24 30 24 4 0 23 16 42 35 19 19 38 35 43 35 11 0 140 128 140 140 0 5 13
21 28 37 16 15 31 36 35 46 3 9 11 17 16 17 5 0 12 11 15 25 4 14 11 25 16 25
6 0 10 7 10 15 0 9 6 18 14 21 8 3 18 19 21 35 4 16 10 29 15 29 4 0 10 18 14
40 3 22 11 40 16 40 5 0 12 23 16 50 4 28 10 50 15 50 5 0 9 52 9 115 0 63 -4
115 -9 115 -4 0 -11 19 -14 41 -3 23 -10 45 -15 48 -6 3 -14 19 -17 34 -4 15
-11 27 -15 27 -4 0 -11 12 -14 26 -4 14 -18 36 -31 48 -14 13 -25 27 -25 31 0
9 -136 145 -145 145 -4 0 -18 11 -30 24 -12 13 -32 27 -43 31 -12 3 -22 10
-22 15 0 5 -13 11 -30 15 -16 4 -30 11 -30 15 0 5 -16 12 -35 16 -19 3 -35 10
-35 15 0 5 -18 12 -40 15 -22 4 -40 10 -40 14 0 4 -22 10 -50 14 -27 4 -50 11
-50 16 0 4 -30 12 -67 16 -38 3 -71 11 -74 15 -3 5 -76 12 -162 16 -86 3 -157
10 -157 15 0 4 -81 8 -180 8 -99 0 -180 -4 -180 -8z"/>
</g>
</svg>
