<?xml version="1.0" standalone="no"?>
<!DOCTYPE svg PUBLIC "-//W3C//DTD SVG 20010904//EN"
 "http://www.w3.org/TR/2001/REC-SVG-20010904/DTD/svg10.dtd">
<svg version="1.0" xmlns="http://www.w3.org/2000/svg"
 width="1271.000000pt" height="1272.000000pt" viewBox="0 0 1271.000000 1272.000000"
 preserveAspectRatio="xMidYMid meet">
<metadata>
Created by potrace 1.16, written by Peter Selinger 2001-2019
</metadata>
<g transform="translate(0.000000,1272.000000) scale(0.100000,-0.100000)"
fill="#50c839" stroke="none">
<path d="M6345 12322 c-16 -11 -35 -25 -41 -33 -6 -8 -616 -1328 -1354 -2934
-834 -1814 -1344 -2936 -1347 -2961 -5 -38 98 -267 1327 -2940 733 -1594 1343
-2920 1356 -2945 40 -81 108 -106 184 -67 l45 23 1353 2940 c1264 2748 1352
2943 1348 2985 -2 34 -340 776 -1326 2920 -727 1581 -1334 2899 -1349 2930
-45 92 -125 125 -196 82z m639 -3258 c313 -1384 571 -2525 573 -2535 5 -18
-26 -19 -1147 -19 -1093 0 -1152 1 -1148 18 3 9 261 1150 574 2535 313 1384
571 2517 574 2517 3 0 261 -1132 574 -2516z m-1497 -332 l-502 -2222 -523 0
c-288 0 -521 3 -519 8 2 4 462 1005 1022 2224 560 1220 1020 2216 1021 2215 2
-2 -223 -1003 -499 -2225z m2358 33 c554 -1204 1014 -2205 1021 -2222 l14 -33
-522 0 -523 0 -499 2207 c-274 1214 -501 2216 -504 2228 -3 11 -2 18 1 15 3
-3 458 -990 1012 -2195z m-2357 -4737 c276 -1222 501 -2222 499 -2224 -1 -2
-1908 4139 -2029 4408 l-17 38 522 0 523 0 502 -2222z m2068 2205 c-3 -10
-260 -1147 -572 -2528 -311 -1380 -569 -2513 -573 -2517 -3 -4 -262 1128 -575
2515 -313 1387 -572 2528 -574 2535 -3 9 231 12 1148 12 1092 0 1151 -1 1146
-17z m1306 -21 c-123 -274 -2028 -4409 -2030 -4407 -1 1 224 1002 500 2224
l502 2221 523 0 522 0 -17 -38z"/>
</g>
</svg>
