<svg id="svg" version="1.1" xmlns="http://www.w3.org/2000/svg" xmlns:xlink="http://www.w3.org/1999/xlink" width="400" height="95.82417582417582" viewBox="0, 0, 400,95.82417582417582"><g id="svgg"><path id="path0" d="M369.042 11.946 C 368.927 11.991,368.833 12.172,368.833 12.347 C 368.833 12.677,368.672 12.724,367.707 12.671 C 366.702 12.616,366.167 12.819,366.167 13.255 C 366.167 13.613,366.087 13.654,365.292 13.700 C 364.529 13.744,364.410 13.798,364.363 14.125 C 364.316 14.456,364.214 14.500,363.488 14.500 C 362.728 14.500,362.667 14.530,362.667 14.908 C 362.667 15.283,362.595 15.320,361.792 15.366 C 361.042 15.409,360.909 15.468,360.865 15.776 C 360.834 15.995,360.655 16.175,360.407 16.238 C 360.115 16.311,360.000 16.454,360.000 16.744 C 360.000 17.108,359.921 17.153,359.208 17.199 C 358.533 17.243,358.409 17.305,358.363 17.625 C 358.329 17.868,358.195 18.000,357.985 18.000 C 357.804 18.000,357.579 18.176,357.478 18.398 C 357.378 18.617,357.117 18.878,356.898 18.978 C 356.670 19.082,356.500 19.303,356.500 19.496 C 356.500 19.745,356.390 19.833,356.083 19.833 C 355.695 19.833,355.667 19.890,355.667 20.656 C 355.667 21.429,355.639 21.481,355.208 21.531 C 354.885 21.568,354.735 21.690,354.698 21.948 C 354.666 22.175,354.509 22.332,354.281 22.365 C 353.967 22.410,353.910 22.537,353.866 23.292 C 353.820 24.095,353.783 24.167,353.408 24.167 C 353.089 24.167,353.000 24.253,353.000 24.565 C 353.000 24.851,352.882 24.993,352.583 25.068 C 352.186 25.168,352.167 25.230,352.167 26.409 C 352.167 27.633,352.162 27.645,351.708 27.697 C 351.257 27.749,351.249 27.770,351.201 29.042 C 351.154 30.300,351.142 30.333,350.731 30.333 C 350.396 30.333,350.316 30.410,350.340 30.708 C 350.504 32.733,350.321 34.645,349.958 34.697 C 349.598 34.748,349.583 34.815,349.583 36.417 C 349.583 38.018,349.598 38.085,349.958 38.137 L 350.333 38.190 350.333 45.577 L 350.333 52.964 350.748 53.068 L 351.163 53.172 351.207 60.544 L 351.250 67.917 351.708 67.969 L 352.167 68.022 352.167 75.841 L 352.167 83.660 352.583 83.765 L 353.000 83.869 353.000 89.768 L 353.000 95.667 354.333 95.667 L 355.667 95.667 355.667 95.012 C 355.667 94.459,355.725 94.348,356.042 94.303 C 356.418 94.250,356.429 94.217,356.485 92.887 C 356.495 92.643,356.623 92.506,356.875 92.470 C 357.269 92.414,357.284 92.357,357.317 90.792 C 357.332 90.063,357.366 90.000,357.750 90.000 C 357.979 90.000,358.158 89.944,358.147 89.875 C 357.994 88.905,358.192 88.186,358.625 88.136 C 359.044 88.088,359.088 88.016,359.134 87.302 C 359.176 86.643,359.241 86.513,359.550 86.469 C 359.867 86.424,359.924 86.297,359.967 85.542 C 360.013 84.743,360.052 84.667,360.418 84.667 C 360.726 84.667,360.814 84.581,360.802 84.292 C 360.751 83.081,360.825 82.833,361.236 82.833 C 361.615 82.833,361.645 82.761,361.755 81.592 C 361.857 80.496,361.912 80.346,362.227 80.301 C 362.531 80.257,362.591 80.123,362.634 79.375 C 362.680 78.571,362.717 78.500,363.092 78.500 C 363.470 78.500,363.500 78.440,363.500 77.667 C 363.500 76.889,363.528 76.833,363.917 76.833 C 364.314 76.833,364.333 76.787,364.333 75.856 C 364.333 74.920,364.350 74.883,364.727 74.955 C 365.152 75.036,365.327 74.699,365.331 73.788 C 365.333 73.449,365.445 73.283,365.750 73.167 C 366.108 73.030,366.167 72.904,366.167 72.266 C 366.167 71.623,366.217 71.516,366.542 71.470 C 366.889 71.421,366.920 71.320,366.965 70.125 C 367.012 68.877,367.028 68.833,367.424 68.833 C 367.807 68.833,367.833 68.777,367.833 67.952 C 367.833 67.100,367.849 67.070,368.292 67.077 C 368.727 67.083,368.754 67.037,368.833 66.167 C 368.904 65.389,368.967 65.250,369.250 65.250 C 369.581 65.250,369.599 65.196,369.650 64.053 C 369.661 63.810,369.790 63.672,370.042 63.637 C 370.369 63.590,370.423 63.471,370.467 62.698 L 370.518 61.814 371.051 61.865 C 371.496 61.908,371.575 61.978,371.531 62.292 L 371.479 62.667 375.406 62.667 L 379.333 62.667 379.333 62.250 L 379.333 61.833 381.125 61.815 C 382.110 61.805,383.085 61.810,383.292 61.827 C 383.591 61.851,383.667 61.771,383.667 61.429 C 383.667 61.011,383.695 61.000,384.792 60.997 C 386.032 60.995,386.261 60.910,386.366 60.417 C 386.405 60.233,386.542 60.107,386.671 60.137 C 387.258 60.271,387.999 59.981,388.100 59.576 C 388.173 59.284,388.317 59.167,388.601 59.167 C 388.821 59.167,388.991 59.110,388.980 59.042 C 388.885 58.441,389.014 58.333,389.830 58.333 C 390.577 58.333,390.671 58.291,390.765 57.917 C 390.840 57.618,390.982 57.500,391.268 57.500 C 391.596 57.500,391.667 57.415,391.667 57.023 C 391.667 56.604,391.717 56.556,392.083 56.626 C 392.456 56.697,392.500 56.650,392.500 56.186 C 392.500 55.743,392.561 55.667,392.917 55.667 C 393.250 55.667,393.333 55.583,393.333 55.250 C 393.333 54.862,393.617 54.720,394.208 54.814 C 394.277 54.824,394.333 54.646,394.333 54.417 C 394.333 54.083,394.417 54.000,394.750 54.000 C 395.080 54.000,395.167 53.916,395.167 53.595 C 395.167 53.302,395.270 53.175,395.542 53.137 C 395.810 53.098,395.932 52.953,395.969 52.625 C 396.010 52.272,396.111 52.167,396.409 52.167 C 396.750 52.167,396.808 52.064,396.906 51.279 C 397.003 50.504,397.063 50.394,397.383 50.404 C 397.661 50.414,397.763 50.308,397.802 49.969 C 397.838 49.655,397.963 49.505,398.218 49.469 C 398.550 49.421,398.588 49.307,398.632 48.208 C 398.679 47.050,398.698 47.000,399.091 47.000 C 399.491 47.000,399.500 46.971,399.500 45.667 C 399.500 44.593,399.549 44.333,399.750 44.333 C 399.968 44.333,400.000 43.398,400.000 36.917 C 400.000 30.435,399.968 29.500,399.750 29.500 C 399.549 29.500,399.500 29.241,399.500 28.167 C 399.500 26.863,399.491 26.833,399.092 26.833 C 398.717 26.833,398.680 26.762,398.634 25.958 C 398.590 25.203,398.533 25.076,398.217 25.031 C 397.908 24.987,397.843 24.857,397.800 24.198 C 397.758 23.541,397.692 23.408,397.386 23.365 C 397.135 23.329,396.988 23.156,396.911 22.807 C 396.818 22.383,396.735 22.313,396.400 22.377 C 396.063 22.442,395.997 22.385,395.984 22.019 C 395.937 20.779,395.926 20.751,395.483 20.700 C 395.118 20.657,395.062 20.583,395.130 20.229 C 395.186 19.936,395.141 19.818,394.980 19.841 C 394.497 19.908,394.372 19.818,394.275 19.333 C 394.196 18.936,394.088 18.833,393.754 18.833 C 393.357 18.833,393.258 18.691,393.321 18.208 C 393.336 18.089,393.166 18.000,392.924 18.000 C 392.582 18.000,392.500 17.919,392.500 17.580 C 392.500 17.228,392.435 17.172,392.101 17.232 C 391.773 17.292,391.686 17.222,391.609 16.836 C 391.525 16.417,391.425 16.354,390.674 16.251 C 389.929 16.149,389.833 16.090,389.833 15.734 C 389.833 15.421,389.745 15.333,389.428 15.333 C 389.135 15.333,389.008 15.230,388.970 14.958 C 388.924 14.632,388.804 14.577,388.042 14.533 C 387.238 14.487,387.167 14.449,387.167 14.075 C 387.167 13.678,387.132 13.667,385.917 13.667 C 384.805 13.667,384.667 13.632,384.667 13.354 C 384.667 12.872,384.255 12.638,383.467 12.669 C 382.157 12.721,382.026 12.688,381.970 12.292 L 381.917 11.917 375.583 11.891 C 372.100 11.876,369.156 11.901,369.042 11.946 M245.875 12.776 C 245.715 12.841,245.667 14.065,245.667 18.097 L 245.667 23.333 245.250 23.333 L 244.833 23.333 244.833 28.572 L 244.833 33.810 244.458 33.863 L 244.083 33.917 244.039 39.114 L 243.995 44.311 243.623 44.364 C 243.148 44.431,243.040 45.611,243.017 51.030 L 243.000 54.810 242.625 54.863 C 242.252 54.916,242.250 54.932,242.205 58.350 L 242.160 61.783 241.747 61.971 C 241.212 62.215,241.152 63.224,241.656 63.494 C 241.859 63.603,243.957 63.667,247.322 63.667 L 252.667 63.667 252.667 60.203 L 252.667 56.740 253.176 56.548 L 253.685 56.356 253.666 54.469 C 253.656 53.432,253.652 50.507,253.657 47.970 L 253.667 43.357 254.042 43.303 L 254.417 43.250 254.460 36.792 C 254.485 33.074,254.568 30.333,254.655 30.333 C 254.738 30.333,254.916 30.291,255.050 30.240 C 255.214 30.177,255.352 30.313,255.471 30.656 C 255.590 30.997,255.760 31.167,255.984 31.167 C 256.287 31.167,256.324 31.292,256.368 32.458 C 256.413 33.654,256.445 33.754,256.792 33.803 C 257.142 33.853,257.167 33.938,257.167 35.083 C 257.167 36.229,257.192 36.314,257.542 36.363 C 257.891 36.413,257.920 36.509,257.959 37.750 C 258.014 39.510,258.099 39.833,258.503 39.833 C 258.798 39.833,258.833 39.948,258.833 40.903 C 258.833 42.234,258.932 42.500,259.429 42.500 C 259.813 42.500,259.823 42.538,259.869 44.208 C 259.914 45.836,259.934 45.919,260.292 45.970 C 260.645 46.020,260.667 46.101,260.667 47.345 C 260.667 48.644,260.674 48.667,261.083 48.667 C 261.494 48.667,261.500 48.687,261.502 50.042 C 261.505 51.831,261.600 52.167,262.103 52.167 C 262.488 52.167,262.500 52.206,262.500 53.500 C 262.500 54.811,262.507 54.833,262.917 54.833 L 263.333 54.833 263.333 56.583 L 263.333 58.333 263.750 58.333 C 264.163 58.333,264.167 58.345,264.167 59.820 C 264.167 61.518,264.246 61.833,264.676 61.833 C 264.928 61.833,264.991 61.988,265.033 62.708 L 265.083 63.583 271.208 63.627 L 277.333 63.671 277.333 62.752 C 277.333 61.883,277.356 61.833,277.750 61.833 C 278.160 61.833,278.167 61.811,278.167 60.500 L 278.167 59.167 278.679 59.167 C 279.153 59.167,279.190 59.125,279.163 58.625 C 279.113 57.714,279.153 57.585,279.542 57.415 C 279.873 57.269,279.922 57.111,279.966 56.042 C 280.013 54.883,280.031 54.833,280.424 54.833 C 280.825 54.833,280.833 54.805,280.833 53.500 C 280.833 52.194,280.842 52.167,281.244 52.167 C 281.612 52.167,281.667 52.078,281.766 51.333 C 281.827 50.875,281.936 50.500,282.010 50.500 C 282.428 50.500,282.667 49.920,282.667 48.905 C 282.667 47.873,282.682 47.833,283.083 47.833 C 283.477 47.833,283.500 47.783,283.500 46.917 C 283.500 46.050,283.523 46.000,283.917 46.000 C 284.324 46.000,284.333 45.971,284.333 44.768 C 284.333 43.581,284.349 43.532,284.765 43.428 C 285.061 43.354,285.167 43.240,285.100 43.068 C 285.046 42.925,285.075 42.860,285.169 42.918 C 285.271 42.981,285.333 42.608,285.333 41.938 C 285.333 40.943,285.363 40.852,285.708 40.803 C 286.034 40.757,286.090 40.637,286.133 39.885 C 286.176 39.140,286.234 39.014,286.550 38.969 C 286.887 38.921,286.921 38.811,286.965 37.625 C 287.012 36.377,287.028 36.333,287.424 36.333 C 287.822 36.333,287.833 36.299,287.833 35.094 C 287.833 33.867,287.838 33.855,288.292 33.803 C 288.718 33.754,288.753 33.690,288.800 32.885 C 288.843 32.140,288.901 32.014,289.217 31.969 C 289.553 31.921,289.587 31.811,289.632 30.625 C 289.679 29.386,289.697 29.333,290.081 29.333 C 290.609 29.333,290.592 28.916,290.539 40.697 L 290.495 50.477 290.122 50.530 L 289.750 50.583 289.706 57.127 L 289.663 63.671 295.347 63.627 L 301.032 63.583 301.008 55.750 C 300.969 43.245,301.129 38.196,301.567 38.133 L 301.917 38.083 301.917 25.417 L 301.917 12.750 293.625 12.712 L 285.333 12.675 285.333 13.576 C 285.333 14.378,285.293 14.483,284.965 14.530 C 284.532 14.593,284.374 15.047,284.350 16.292 C 284.336 17.033,284.285 17.167,284.018 17.167 C 283.601 17.167,283.500 17.479,283.500 18.764 C 283.500 19.794,283.484 19.833,283.083 19.833 C 282.695 19.833,282.667 19.890,282.667 20.655 C 282.667 21.380,282.623 21.483,282.292 21.530 C 281.945 21.579,281.913 21.680,281.868 22.865 C 281.821 24.120,281.811 24.147,281.368 24.198 C 280.957 24.245,280.912 24.320,280.866 25.041 C 280.822 25.721,280.758 25.846,280.408 25.934 C 280.021 26.031,280.000 26.100,280.000 27.268 C 280.000 28.471,279.990 28.500,279.583 28.500 C 279.189 28.500,279.167 28.550,279.167 29.417 C 279.167 30.270,279.139 30.333,278.771 30.333 C 278.423 30.333,278.363 30.432,278.266 31.167 C 278.205 31.625,278.088 32.000,278.006 32.000 C 277.573 32.000,277.333 32.567,277.333 33.595 C 277.333 34.627,277.318 34.667,276.917 34.667 C 276.523 34.667,276.500 34.717,276.500 35.583 C 276.500 36.450,276.477 36.500,276.083 36.500 C 275.676 36.500,275.667 36.528,275.667 37.750 C 275.667 38.771,275.619 39.000,275.407 39.000 C 275.264 39.000,275.193 39.074,275.249 39.165 C 275.309 39.263,275.234 39.285,275.063 39.219 C 274.840 39.134,274.800 39.174,274.886 39.396 C 274.951 39.568,274.929 39.643,274.831 39.582 C 274.729 39.519,274.667 39.892,274.667 40.562 C 274.667 41.557,274.637 41.648,274.292 41.697 C 273.945 41.746,273.913 41.846,273.868 43.042 C 273.821 44.289,273.805 44.333,273.410 44.333 C 273.024 44.333,273.000 44.388,273.000 45.250 C 273.000 46.117,272.977 46.167,272.583 46.167 C 272.271 46.167,272.159 46.261,272.137 46.542 C 272.120 46.748,272.064 46.354,272.012 45.667 C 271.925 44.531,271.882 44.412,271.542 44.363 C 271.189 44.313,271.167 44.232,271.167 42.988 C 271.167 41.695,271.158 41.667,270.756 41.667 C 270.349 41.667,270.345 41.650,270.297 39.958 C 270.252 38.330,270.232 38.247,269.875 38.197 C 269.480 38.141,269.432 37.892,269.495 36.246 C 269.530 35.332,269.256 34.667,268.844 34.667 C 268.548 34.667,268.509 34.535,268.465 33.375 C 268.420 32.180,268.389 32.079,268.042 32.030 C 267.692 31.980,267.667 31.895,267.667 30.756 C 267.667 29.594,267.647 29.531,267.250 29.432 C 266.852 29.332,266.833 29.271,266.833 28.080 C 266.833 26.861,266.824 26.833,266.417 26.833 C 266.016 26.833,266.000 26.794,266.000 25.764 C 266.000 24.429,265.901 24.167,265.399 24.167 C 265.011 24.167,265.000 24.129,265.000 22.833 C 265.000 21.527,264.992 21.500,264.589 21.500 C 264.182 21.500,264.178 21.483,264.131 19.792 C 264.086 18.172,264.064 18.081,263.714 18.031 C 263.364 17.981,263.342 17.890,263.297 16.281 L 263.250 14.583 262.792 14.531 C 262.355 14.480,262.333 14.436,262.333 13.578 L 262.333 12.678 254.208 12.684 C 249.740 12.688,245.990 12.729,245.875 12.776 M195.539 13.833 C 195.539 14.154,195.573 14.285,195.615 14.125 C 195.657 13.965,195.657 13.702,195.615 13.542 C 195.573 13.381,195.539 13.512,195.539 13.833 M319.613 24.276 C 319.551 24.338,319.500 24.526,319.500 24.694 C 319.500 24.978,319.311 25.000,316.917 25.000 L 314.333 25.000 314.333 25.417 C 314.333 25.697,314.238 25.838,314.042 25.848 C 313.881 25.856,313.487 25.874,313.167 25.889 L 312.583 25.917 312.537 28.114 C 312.492 30.241,312.479 30.313,312.120 30.364 C 311.763 30.415,311.748 30.489,311.703 32.548 L 311.657 34.678 313.370 34.631 C 315.003 34.586,315.086 34.566,315.137 34.208 C 315.183 33.878,315.287 33.833,315.998 33.833 C 316.761 33.833,316.813 33.805,316.917 33.333 L 317.026 32.833 318.677 32.833 C 320.298 32.833,320.329 32.826,320.432 32.417 L 320.536 32.000 322.704 32.000 L 324.872 32.000 324.793 31.583 L 324.713 31.167 326.928 31.167 C 329.099 31.167,329.145 31.174,329.197 31.542 C 329.243 31.868,329.363 31.923,330.115 31.967 C 330.860 32.010,330.986 32.067,331.031 32.383 C 331.075 32.692,331.206 32.758,331.855 32.800 C 332.749 32.858,332.828 33.059,332.831 35.281 C 332.833 36.463,332.828 36.478,332.375 36.531 C 332.051 36.568,331.901 36.690,331.865 36.948 C 331.832 37.175,331.675 37.332,331.448 37.365 C 331.217 37.398,331.064 37.554,331.030 37.792 C 330.983 38.122,330.880 38.167,330.158 38.167 C 329.424 38.167,329.329 38.210,329.235 38.583 C 329.135 38.981,329.074 39.000,327.899 39.000 L 326.667 39.000 326.667 39.500 L 326.667 40.000 324.417 40.000 L 322.167 40.000 322.167 40.417 C 322.167 40.833,322.166 40.833,320.503 40.833 C 318.868 40.833,318.838 40.840,318.735 41.250 C 318.643 41.616,318.537 41.669,317.857 41.682 C 316.153 41.716,316.086 41.732,316.031 42.116 C 315.987 42.425,315.857 42.490,315.198 42.533 C 314.484 42.579,314.412 42.623,314.364 43.042 C 314.314 43.479,314.270 43.500,313.406 43.500 C 312.551 43.500,312.500 43.523,312.500 43.917 C 312.500 44.306,312.444 44.333,311.667 44.333 C 310.895 44.333,310.833 44.363,310.833 44.739 C 310.833 45.058,310.735 45.156,310.375 45.197 C 310.015 45.239,309.905 45.348,309.864 45.708 C 309.823 46.068,309.724 46.167,309.406 46.167 C 309.084 46.167,309.000 46.253,309.000 46.583 C 309.000 46.917,308.917 47.000,308.583 47.000 C 308.194 47.000,308.167 47.056,308.167 47.833 C 308.167 48.611,308.139 48.667,307.750 48.667 C 307.356 48.667,307.333 48.717,307.333 49.583 C 307.333 50.445,307.309 50.500,306.924 50.500 C 306.388 50.500,306.302 50.977,306.367 53.583 L 306.417 55.583 306.875 55.636 L 307.333 55.689 307.333 57.428 L 307.333 59.167 307.750 59.167 C 308.102 59.167,308.167 59.244,308.167 59.667 C 308.167 60.089,308.231 60.167,308.583 60.167 C 308.947 60.167,309.000 60.240,309.000 60.736 C 309.000 61.706,309.118 61.833,310.018 61.833 C 310.770 61.833,310.833 61.865,310.833 62.238 C 310.833 62.529,310.937 62.659,311.202 62.697 C 311.434 62.730,311.605 62.903,311.667 63.167 C 311.759 63.561,311.833 63.586,313.049 63.632 C 314.289 63.679,314.333 63.695,314.333 64.090 L 314.333 64.500 320.917 64.500 L 327.500 64.500 327.500 64.092 C 327.500 63.725,327.577 63.680,328.292 63.634 L 329.083 63.583 329.132 62.302 C 329.176 61.133,329.212 61.017,329.542 60.969 C 330.022 60.899,330.130 60.441,330.150 58.375 L 330.167 56.667 328.003 56.667 L 325.840 56.667 325.735 57.083 C 325.632 57.494,325.607 57.500,323.899 57.500 L 322.167 57.500 322.167 57.083 C 322.167 56.689,322.117 56.667,321.250 56.667 C 320.393 56.667,320.333 56.641,320.333 56.266 C 320.333 55.911,320.237 55.851,319.500 55.750 L 318.667 55.635 318.667 53.484 L 318.667 51.333 319.083 51.333 C 319.414 51.333,319.500 51.249,319.500 50.928 C 319.500 50.609,319.598 50.511,319.958 50.469 C 320.287 50.432,320.432 50.310,320.470 50.042 C 320.510 49.760,320.634 49.666,320.970 49.664 C 321.816 49.660,322.167 49.484,322.167 49.064 C 322.167 48.678,322.206 48.667,323.500 48.667 C 324.811 48.667,324.833 48.660,324.833 48.250 C 324.833 47.840,324.856 47.833,326.167 47.833 C 327.478 47.833,327.500 47.826,327.500 47.417 C 327.500 47.022,327.551 46.999,328.458 46.987 C 330.928 46.954,330.912 46.958,330.969 46.458 C 331.019 46.028,331.072 46.000,331.833 46.000 C 332.590 46.000,332.649 45.969,332.714 45.542 C 332.833 44.753,332.838 49.066,332.723 54.298 C 332.615 59.221,332.607 59.318,332.265 59.367 C 331.933 59.414,331.917 59.514,331.917 61.500 L 331.917 63.583 338.042 63.627 L 344.167 63.671 344.167 56.180 L 344.167 48.690 344.542 48.637 L 344.917 48.583 344.960 39.042 L 345.003 29.500 344.585 29.500 C 344.231 29.500,344.167 29.423,344.167 29.000 C 344.167 28.578,344.102 28.500,343.750 28.500 C 343.417 28.500,343.333 28.417,343.333 28.083 C 343.333 27.731,343.256 27.667,342.833 27.667 C 342.411 27.667,342.333 27.602,342.333 27.250 C 342.333 26.920,342.249 26.833,341.928 26.833 C 341.609 26.833,341.511 26.735,341.469 26.375 C 341.421 25.956,341.349 25.912,340.635 25.866 C 339.977 25.824,339.846 25.759,339.802 25.450 C 339.754 25.114,339.644 25.079,338.469 25.035 C 337.292 24.990,337.184 24.956,337.136 24.618 L 337.083 24.250 328.404 24.207 C 323.631 24.183,319.675 24.214,319.613 24.276 M378.735 24.792 C 379.019 25.015,379.443 25.167,379.783 25.167 C 380.472 25.167,381.000 25.422,381.000 25.756 C 381.000 25.917,381.173 26.000,381.508 26.000 C 381.812 26.000,382.166 26.150,382.390 26.375 C 382.597 26.581,382.969 26.842,383.216 26.955 C 383.464 27.067,383.667 27.262,383.667 27.386 C 383.667 27.511,383.854 27.699,384.083 27.803 C 384.313 27.907,384.500 28.109,384.500 28.251 C 384.500 28.392,384.688 28.580,384.917 28.667 C 385.155 28.757,385.333 28.958,385.333 29.136 C 385.333 29.307,385.514 29.529,385.734 29.629 C 385.977 29.740,386.180 30.013,386.248 30.323 C 386.309 30.604,386.413 30.833,386.477 30.833 C 386.680 30.833,387.167 31.784,387.167 32.182 C 387.167 32.391,387.335 32.741,387.542 32.961 C 388.217 33.678,388.195 40.638,387.516 41.292 C 387.350 41.452,387.168 41.878,387.113 42.238 C 386.961 43.216,386.734 43.364,385.588 43.229 C 384.978 43.157,384.497 42.997,384.301 42.801 C 384.128 42.628,383.810 42.419,383.593 42.337 C 383.345 42.243,383.122 41.952,382.991 41.552 C 382.876 41.203,382.644 40.819,382.474 40.699 C 382.305 40.579,382.167 40.377,382.167 40.249 C 382.167 40.122,381.974 39.809,381.738 39.555 C 381.503 39.301,381.268 38.882,381.216 38.624 C 381.165 38.366,380.988 38.083,380.823 37.994 C 380.658 37.906,380.475 37.684,380.417 37.500 C 380.317 37.186,380.165 37.167,377.828 37.167 C 374.956 37.167,374.998 37.191,375.002 35.553 C 375.007 33.654,375.204 33.490,377.650 33.350 C 380.115 33.208,380.206 32.833,377.775 32.833 C 375.204 32.833,375.167 32.809,375.167 31.167 C 375.167 29.911,375.192 29.815,375.569 29.643 C 375.791 29.542,376.010 29.313,376.057 29.134 C 376.104 28.955,376.297 28.768,376.488 28.718 C 377.575 28.434,376.446 25.667,375.243 25.667 C 374.694 25.667,373.833 26.502,373.833 27.035 C 373.833 27.252,373.692 27.706,373.520 28.044 C 373.256 28.562,373.243 28.689,373.437 28.850 C 374.326 29.588,373.423 32.833,372.329 32.833 C 372.128 32.833,371.742 33.021,371.470 33.250 C 371.197 33.479,370.876 33.667,370.755 33.667 C 370.492 33.667,368.667 35.459,368.667 35.717 C 368.667 35.817,368.462 36.112,368.211 36.374 C 367.512 37.104,367.521 41.506,368.223 42.208 C 368.467 42.452,368.667 42.834,368.667 43.056 C 368.667 43.320,368.782 43.491,368.998 43.548 C 369.180 43.595,369.403 43.829,369.494 44.067 C 369.591 44.324,369.787 44.500,369.976 44.500 C 370.150 44.500,370.399 44.660,370.528 44.854 C 371.065 45.663,376.751 45.769,376.958 44.974 C 377.003 44.805,377.171 44.667,377.332 44.667 C 377.494 44.667,377.719 44.554,377.833 44.417 C 378.177 44.002,377.233 44.100,376.811 44.523 C 376.192 45.142,373.588 45.390,371.873 44.995 C 370.874 44.764,369.100 43.005,368.926 42.071 C 368.859 41.711,368.661 41.282,368.485 41.119 C 367.962 40.629,368.121 37.833,368.672 37.833 C 368.737 37.833,368.838 37.538,368.896 37.177 C 368.958 36.788,369.205 36.296,369.500 35.973 C 369.775 35.672,370.000 35.364,370.000 35.288 C 370.000 35.212,370.288 35.021,370.640 34.864 C 370.992 34.706,371.410 34.448,371.568 34.289 C 371.893 33.964,372.997 33.898,373.511 34.173 C 373.880 34.370,374.002 36.876,373.653 37.092 C 373.444 37.221,373.604 38.025,373.871 38.190 C 373.969 38.250,374.926 38.259,375.999 38.210 C 378.584 38.091,379.148 38.200,379.277 38.842 C 379.331 39.112,379.436 39.333,379.510 39.333 C 379.809 39.333,379.857 40.031,379.579 40.339 C 379.422 40.512,379.255 41.012,379.208 41.452 C 379.162 41.891,379.054 42.337,378.970 42.443 C 378.875 42.563,378.884 42.678,378.992 42.745 C 379.242 42.900,379.500 42.697,379.500 42.346 C 379.500 42.181,379.706 41.775,379.958 41.443 C 380.210 41.112,380.542 40.670,380.695 40.462 C 381.069 39.952,381.508 40.214,381.802 41.124 C 381.927 41.508,382.150 41.834,382.320 41.878 C 382.536 41.935,382.649 42.190,382.731 42.811 L 382.845 43.667 383.980 43.667 C 385.203 43.667,385.919 44.065,385.546 44.539 C 385.454 44.655,385.330 44.956,385.270 45.208 C 385.210 45.460,385.095 45.667,385.015 45.667 C 384.935 45.667,384.395 46.113,383.815 46.658 C 383.235 47.203,382.574 47.696,382.346 47.753 C 382.118 47.810,381.836 47.993,381.720 48.159 C 381.603 48.325,381.225 48.514,380.879 48.578 C 380.533 48.641,380.080 48.852,379.872 49.046 C 379.559 49.337,379.227 49.410,377.955 49.471 C 376.677 49.532,376.379 49.599,376.192 49.865 C 375.945 50.218,375.146 50.158,374.667 49.750 C 374.518 49.624,373.781 49.508,372.852 49.466 C 371.499 49.405,371.247 49.346,370.996 49.036 C 370.824 48.824,370.419 48.631,370.008 48.565 C 369.539 48.490,369.226 48.325,369.053 48.060 C 368.911 47.844,368.645 47.667,368.463 47.667 C 368.084 47.667,365.333 44.979,365.333 44.608 C 365.333 44.478,365.146 44.249,364.917 44.099 C 364.688 43.949,364.500 43.701,364.500 43.549 C 364.500 43.396,364.341 43.102,364.147 42.896 C 363.953 42.689,363.727 42.163,363.646 41.728 C 363.565 41.292,363.435 40.893,363.357 40.843 C 362.506 40.283,362.511 34.046,363.364 33.487 C 363.445 33.434,363.574 32.991,363.651 32.503 C 363.740 31.941,363.914 31.519,364.125 31.350 C 364.308 31.203,364.510 30.862,364.574 30.592 C 364.638 30.321,364.872 29.931,365.095 29.725 C 365.318 29.518,365.500 29.233,365.500 29.091 C 365.500 28.949,365.577 28.833,365.670 28.833 C 365.764 28.833,366.240 28.421,366.729 27.917 C 367.217 27.412,367.692 27.000,367.784 27.000 C 367.875 27.000,368.186 26.775,368.474 26.500 C 368.762 26.225,369.158 26.000,369.354 26.000 C 369.551 26.000,369.886 25.813,370.098 25.583 C 370.344 25.318,370.665 25.167,370.981 25.167 C 371.488 25.167,371.926 25.012,372.667 24.571 C 373.403 24.132,378.116 24.304,378.735 24.792 M378.447 43.108 C 378.385 43.171,378.333 43.376,378.333 43.563 C 378.333 43.885,378.350 43.888,378.618 43.620 C 378.812 43.426,378.848 43.281,378.732 43.165 C 378.638 43.071,378.510 43.046,378.447 43.108 M134.050 52.667 C 134.050 53.171,134.081 53.377,134.119 53.125 C 134.158 52.873,134.158 52.460,134.119 52.208 C 134.081 51.956,134.050 52.163,134.050 52.667 " stroke="none" fill="#a41c34" fill-rule="evenodd"></path><path id="path1" d="M5.869 12.865 C 5.715 13.019,5.667 15.532,5.667 23.410 L 5.667 33.754 5.292 33.919 L 4.917 34.083 4.873 41.875 C 4.836 48.563,4.796 49.667,4.588 49.667 C 4.051 49.667,4.000 50.301,4.000 56.989 L 4.000 63.667 10.320 63.667 C 13.796 63.667,16.758 63.621,16.903 63.566 C 17.139 63.475,17.167 62.424,17.167 53.399 C 17.167 44.670,17.199 43.333,17.411 43.333 C 17.734 43.333,18.000 42.811,18.000 42.178 L 18.000 41.667 29.417 41.667 L 40.833 41.667 40.833 49.155 C 40.833 56.429,40.824 56.647,40.509 56.747 C 40.063 56.889,39.972 57.685,40.033 60.917 L 40.083 63.583 46.625 63.627 L 53.167 63.671 53.167 59.252 C 53.167 56.644,53.230 54.833,53.321 54.833 C 54.005 54.833,54.000 54.929,54.000 41.833 L 54.000 29.357 54.375 29.303 C 54.894 29.229,54.957 28.400,54.981 21.226 L 55.000 15.369 55.389 15.272 C 55.817 15.164,56.022 13.535,55.674 13.000 C 55.500 12.731,42.762 12.608,42.125 12.870 C 41.852 12.982,41.833 13.623,41.833 22.995 L 41.833 33.000 29.917 33.000 L 18.000 33.000 18.000 29.018 L 18.000 25.036 18.419 24.931 L 18.837 24.826 18.794 18.788 L 18.750 12.750 12.410 12.706 C 7.618 12.673,6.021 12.712,5.869 12.865 M183.444 12.778 C 183.383 12.839,183.333 14.264,183.333 15.944 C 183.333 18.831,183.316 19.000,183.018 19.000 C 182.554 19.000,182.500 19.294,182.500 21.847 L 182.500 24.167 175.503 24.167 L 168.506 24.167 168.402 24.583 C 168.302 24.980,168.240 25.000,167.076 25.000 C 165.734 25.000,165.000 25.198,165.000 25.560 C 165.000 25.720,164.707 25.832,164.083 25.909 C 163.255 26.013,163.167 26.063,163.167 26.429 C 163.167 26.785,163.092 26.834,162.542 26.836 C 161.838 26.839,161.607 26.953,161.451 27.375 C 161.388 27.548,161.172 27.667,160.922 27.667 C 160.583 27.667,160.500 27.749,160.500 28.083 C 160.500 28.416,160.416 28.500,160.087 28.500 C 159.784 28.500,159.645 28.612,159.568 28.918 C 159.504 29.172,159.306 29.376,159.065 29.436 C 158.784 29.507,158.667 29.653,158.667 29.935 C 158.667 30.249,158.578 30.333,158.250 30.333 C 157.917 30.333,157.833 30.417,157.833 30.750 C 157.833 31.083,157.750 31.167,157.417 31.167 C 157.088 31.167,157.000 31.251,157.000 31.565 C 157.000 31.846,156.883 31.993,156.603 32.063 C 156.193 32.166,156.006 32.575,156.002 33.375 C 156.000 33.752,155.926 33.833,155.583 33.833 C 155.231 33.833,155.167 33.911,155.167 34.333 C 155.167 34.713,155.091 34.833,154.851 34.833 C 154.440 34.833,154.333 35.146,154.333 36.347 C 154.333 37.288,154.314 37.333,153.917 37.333 C 153.555 37.333,153.500 37.407,153.500 37.893 C 153.500 39.157,153.298 40.000,152.995 40.000 C 152.520 40.000,152.500 40.259,152.500 46.500 C 152.500 52.766,152.518 53.000,153.006 53.000 C 153.266 53.000,153.328 53.196,153.427 54.333 C 153.536 55.583,153.567 55.667,153.929 55.667 C 154.278 55.667,154.321 55.752,154.366 56.542 C 154.410 57.304,154.465 57.424,154.792 57.470 C 155.049 57.506,155.167 57.637,155.169 57.887 C 155.173 58.593,155.376 59.004,155.770 59.103 C 156.049 59.173,156.167 59.321,156.167 59.601 C 156.167 59.915,156.255 60.000,156.583 60.000 C 156.916 60.000,157.000 60.084,157.000 60.413 C 157.000 60.716,157.112 60.855,157.417 60.932 C 157.646 60.989,157.833 61.098,157.833 61.173 C 157.833 61.492,158.398 61.833,158.925 61.833 C 159.393 61.833,159.512 61.907,159.598 62.250 C 159.692 62.622,159.788 62.667,160.507 62.667 C 161.260 62.667,161.315 62.696,161.364 63.125 C 161.413 63.552,161.476 63.587,162.292 63.634 C 162.928 63.670,163.167 63.751,163.167 63.930 C 163.167 64.429,164.027 64.505,169.225 64.461 L 174.417 64.417 174.470 64.042 C 174.519 63.698,174.611 63.667,175.583 63.667 C 176.659 63.667,177.167 63.425,177.167 62.914 C 177.167 62.759,177.423 62.669,177.958 62.634 C 178.634 62.591,178.758 62.528,178.803 62.208 C 178.842 61.938,178.969 61.833,179.258 61.833 C 179.546 61.833,179.689 61.717,179.762 61.426 C 179.825 61.178,180.005 60.999,180.224 60.968 C 180.449 60.936,180.603 60.777,180.637 60.542 C 180.666 60.335,180.753 60.167,180.831 60.167 C 180.909 60.167,181.089 60.122,181.231 60.068 C 181.452 59.983,181.495 60.225,181.536 61.776 L 181.583 63.583 187.250 63.583 L 192.917 63.583 192.960 55.220 L 193.003 46.856 193.377 46.803 L 193.750 46.750 193.793 37.625 C 193.819 32.213,193.899 28.500,193.990 28.500 C 194.636 28.500,194.667 28.193,194.667 21.682 L 194.667 15.387 195.083 15.197 C 195.797 14.872,195.713 12.918,194.979 12.771 C 194.278 12.631,183.585 12.637,183.444 12.778 M72.613 24.276 C 72.551 24.338,72.500 24.526,72.500 24.694 C 72.500 24.978,72.311 25.000,69.917 25.000 L 67.333 25.000 67.333 25.417 C 67.333 25.775,67.258 25.834,66.792 25.836 C 65.473 25.841,65.500 25.793,65.500 28.186 C 65.500 29.396,65.432 30.333,65.345 30.333 C 64.818 30.333,64.667 30.876,64.667 32.762 L 64.667 34.667 66.125 34.664 C 67.649 34.661,67.874 34.599,68.045 34.134 C 68.119 33.934,68.381 33.837,68.949 33.801 C 69.681 33.754,69.754 33.711,69.802 33.297 L 69.854 32.845 71.552 32.797 C 73.169 32.752,73.253 32.732,73.303 32.375 C 73.355 32.008,73.404 32.000,75.508 32.000 L 77.660 32.000 77.765 31.583 L 77.869 31.167 80.006 31.167 C 82.096 31.167,82.145 31.175,82.197 31.542 C 82.243 31.867,82.363 31.923,83.102 31.966 C 83.820 32.008,83.983 32.080,84.140 32.425 C 84.291 32.756,84.448 32.833,84.972 32.833 L 85.619 32.833 85.714 34.093 C 85.840 35.758,85.717 36.500,85.315 36.500 C 85.127 36.500,84.966 36.659,84.904 36.907 C 84.842 37.155,84.661 37.334,84.443 37.365 C 84.217 37.398,84.063 37.556,84.030 37.792 C 83.984 38.116,83.877 38.167,83.235 38.167 C 82.605 38.167,82.464 38.230,82.303 38.583 C 82.127 38.969,82.028 39.000,80.959 39.000 C 79.832 39.000,79.800 39.012,79.617 39.495 L 79.430 39.991 77.340 40.037 C 75.316 40.082,75.248 40.095,75.197 40.458 C 75.147 40.810,75.063 40.833,73.863 40.836 C 72.301 40.838,71.888 40.939,71.783 41.341 C 71.715 41.602,71.507 41.659,70.476 41.701 C 69.389 41.744,69.231 41.792,69.085 42.125 C 68.978 42.370,68.775 42.501,68.502 42.502 C 67.684 42.507,67.333 42.687,67.333 43.103 C 67.333 43.473,67.271 43.500,66.417 43.500 C 65.550 43.500,65.500 43.523,65.500 43.917 C 65.500 44.280,65.427 44.333,64.930 44.333 C 64.145 44.333,63.833 44.480,63.833 44.851 C 63.833 45.044,63.717 45.167,63.533 45.167 C 63.149 45.167,62.833 45.483,62.833 45.867 C 62.833 46.076,62.707 46.167,62.417 46.167 C 62.087 46.167,62.000 46.251,62.000 46.572 C 62.000 46.865,61.896 46.992,61.625 47.030 C 61.305 47.076,61.243 47.199,61.199 47.875 C 61.157 48.525,61.092 48.667,60.830 48.667 C 60.422 48.667,60.167 49.149,60.167 49.921 C 60.167 50.386,60.089 50.551,59.841 50.616 C 59.154 50.796,59.107 55.539,59.792 55.637 C 60.139 55.686,60.168 55.778,60.183 56.887 C 60.204 58.400,60.336 58.876,60.790 59.078 C 60.996 59.170,61.173 59.421,61.201 59.661 C 61.234 59.945,61.366 60.100,61.604 60.134 C 61.881 60.173,61.979 60.334,62.050 60.866 C 62.154 61.643,62.359 61.827,63.122 61.831 C 63.556 61.833,63.681 61.914,63.765 62.250 C 63.840 62.549,63.982 62.667,64.268 62.667 C 64.577 62.667,64.667 62.756,64.667 63.064 C 64.667 63.539,65.013 63.661,66.375 63.664 C 67.286 63.667,67.333 63.687,67.333 64.083 L 67.333 64.500 73.830 64.500 L 80.327 64.500 80.432 64.083 C 80.510 63.771,80.647 63.666,80.976 63.664 C 82.105 63.659,82.167 63.580,82.167 62.147 C 82.167 60.969,82.199 60.833,82.482 60.833 C 82.933 60.833,83.000 60.530,83.000 58.486 L 83.000 56.667 81.042 56.669 C 79.249 56.672,78.614 56.775,78.652 57.060 C 78.660 57.119,78.667 57.242,78.667 57.333 C 78.667 57.737,75.194 57.532,75.137 57.125 C 75.091 56.801,74.970 56.743,74.245 56.701 C 73.569 56.661,73.375 56.581,73.245 56.288 C 73.135 56.041,72.862 55.881,72.397 55.790 L 71.711 55.656 71.625 54.578 C 71.473 52.684,71.650 51.359,72.064 51.300 C 72.279 51.270,72.437 51.108,72.469 50.885 C 72.501 50.661,72.658 50.501,72.878 50.469 C 73.101 50.436,73.273 50.259,73.333 50.000 C 73.419 49.630,73.528 49.578,74.298 49.533 C 75.095 49.487,75.167 49.449,75.167 49.075 C 75.167 48.678,75.202 48.667,76.413 48.667 C 77.599 48.667,77.665 48.647,77.763 48.257 C 77.860 47.872,77.944 47.844,79.141 47.798 C 80.320 47.754,80.421 47.722,80.470 47.375 C 80.520 47.024,80.603 47.000,81.803 46.998 C 83.433 46.995,83.782 46.896,83.906 46.401 C 83.995 46.046,84.099 46.000,84.825 46.000 C 85.542 46.000,85.654 45.953,85.718 45.625 C 85.759 45.419,85.764 45.579,85.729 45.982 C 85.695 46.384,85.667 49.553,85.667 53.023 C 85.667 59.202,85.660 59.333,85.337 59.333 C 84.888 59.333,84.810 59.751,84.868 61.833 L 84.917 63.583 91.000 63.583 L 97.083 63.583 97.127 56.136 C 97.168 49.011,97.184 48.684,97.484 48.589 C 97.983 48.430,97.995 48.201,97.998 38.947 C 98.000 30.144,97.961 29.500,97.422 29.500 C 97.292 29.500,97.166 29.298,97.136 29.042 C 97.098 28.714,96.977 28.568,96.709 28.530 C 96.475 28.497,96.296 28.325,96.232 28.072 C 96.160 27.784,96.015 27.667,95.732 27.667 C 95.418 27.667,95.333 27.578,95.333 27.250 C 95.333 26.917,95.250 26.833,94.917 26.833 C 94.589 26.833,94.500 26.749,94.500 26.436 C 94.500 26.004,94.149 25.840,93.220 25.836 C 92.798 25.834,92.679 25.757,92.637 25.458 C 92.587 25.112,92.487 25.080,91.302 25.035 C 90.125 24.990,90.017 24.956,89.969 24.618 L 89.917 24.250 81.321 24.207 C 76.593 24.183,72.675 24.214,72.613 24.276 M126.167 24.576 C 126.167 24.972,126.123 24.988,124.875 25.035 C 123.680 25.080,123.579 25.111,123.530 25.458 C 123.487 25.762,123.371 25.833,122.919 25.833 C 122.110 25.833,121.833 25.984,121.833 26.426 C 121.833 26.779,121.750 26.821,120.958 26.866 C 120.204 26.910,120.076 26.967,120.031 27.281 C 119.999 27.509,119.842 27.666,119.615 27.698 C 119.389 27.730,119.230 27.887,119.199 28.109 C 119.168 28.325,118.989 28.508,118.751 28.568 C 118.481 28.636,118.333 28.813,118.286 29.125 C 118.218 29.573,118.216 29.571,118.192 29.068 C 118.173 28.676,118.260 28.511,118.558 28.375 C 118.983 28.181,119.267 26.543,119.057 25.493 L 118.958 25.000 112.896 25.000 L 106.833 25.000 106.833 29.917 C 106.833 34.630,106.820 34.833,106.518 34.833 C 106.009 34.833,106.000 34.990,106.000 43.419 L 106.000 51.477 105.625 51.530 C 105.128 51.601,105.045 52.470,105.019 57.856 C 105.000 61.856,104.991 61.963,104.656 62.051 C 104.117 62.192,104.258 63.360,104.833 63.518 C 105.349 63.661,116.441 63.700,116.958 63.562 L 117.333 63.461 117.333 55.159 L 117.333 46.857 117.708 46.803 C 118.076 46.751,118.084 46.700,118.129 44.233 C 118.174 41.779,118.185 41.712,118.564 41.539 C 118.978 41.350,119.167 40.762,119.167 39.657 C 119.167 39.127,119.228 39.015,119.542 38.970 C 119.861 38.925,119.924 38.800,119.967 38.135 C 120.010 37.477,120.075 37.346,120.384 37.302 C 120.643 37.265,120.765 37.116,120.803 36.792 C 120.844 36.432,120.942 36.333,121.261 36.333 C 121.580 36.333,121.667 36.246,121.667 35.928 C 121.667 35.609,121.765 35.511,122.125 35.469 C 122.453 35.432,122.598 35.310,122.637 35.042 C 122.673 34.785,122.804 34.666,123.053 34.664 C 123.704 34.660,124.154 34.470,124.253 34.157 C 124.328 33.920,124.549 33.839,125.217 33.800 C 126.024 33.753,126.087 33.718,126.136 33.292 C 126.214 32.618,128.833 32.559,128.833 33.231 C 128.833 33.705,129.180 33.828,130.530 33.831 C 131.384 33.833,131.482 33.870,131.530 34.208 C 131.563 34.444,131.717 34.602,131.943 34.635 C 132.161 34.666,132.342 34.845,132.404 35.093 C 132.467 35.343,132.626 35.500,132.818 35.500 C 133.012 35.500,133.170 35.658,133.235 35.917 C 133.301 36.179,133.458 36.333,133.657 36.333 C 133.911 36.333,134.002 36.508,134.113 37.208 C 134.229 37.937,134.315 38.092,134.626 38.137 L 135.000 38.190 135.000 44.318 L 135.000 50.446 134.610 50.624 C 134.228 50.798,134.218 50.861,134.111 53.943 C 133.973 57.885,133.968 63.055,134.101 63.403 C 134.220 63.714,145.109 63.807,145.906 63.504 L 146.333 63.342 146.333 53.754 C 146.333 44.309,146.338 44.167,146.663 44.167 C 147.158 44.167,147.181 43.879,147.130 38.250 L 147.083 33.083 146.708 33.030 C 146.355 32.980,146.333 32.899,146.333 31.655 C 146.333 30.364,146.324 30.333,145.925 30.333 C 145.551 30.333,145.513 30.262,145.467 29.458 C 145.424 28.708,145.365 28.576,145.057 28.532 C 144.839 28.501,144.658 28.322,144.596 28.074 C 144.522 27.779,144.380 27.667,144.080 27.667 C 143.750 27.667,143.667 27.582,143.667 27.250 C 143.667 26.920,143.583 26.833,143.262 26.833 C 142.968 26.833,142.842 26.730,142.803 26.458 C 142.759 26.149,142.598 26.056,141.883 25.929 C 141.193 25.807,141.005 25.704,140.966 25.429 C 140.922 25.121,140.785 25.078,139.725 25.035 C 138.616 24.989,138.525 24.958,138.430 24.576 L 138.327 24.167 132.247 24.167 L 126.167 24.167 126.167 24.576 M198.309 25.456 C 198.134 26.728,198.404 28.415,198.792 28.470 C 199.132 28.518,199.167 28.614,199.167 29.498 C 199.167 30.687,199.274 31.000,199.684 31.000 C 199.955 31.000,200.000 31.128,200.000 31.906 C 200.000 32.978,200.227 33.667,200.579 33.667 C 200.764 33.667,200.833 33.846,200.833 34.320 C 200.833 35.225,200.972 35.500,201.427 35.500 C 201.801 35.500,201.822 35.561,201.868 36.792 C 201.913 37.987,201.945 38.087,202.292 38.137 C 202.642 38.186,202.667 38.271,202.667 39.425 C 202.667 40.598,202.687 40.665,203.076 40.763 C 203.458 40.859,203.489 40.949,203.535 42.058 C 203.578 43.126,203.620 43.255,203.935 43.300 C 204.243 43.344,204.301 43.499,204.397 44.530 C 204.523 45.887,204.570 46.000,205.010 46.000 C 205.297 46.000,205.333 46.122,205.333 47.071 C 205.333 48.104,205.573 48.667,206.012 48.667 C 206.097 48.667,206.168 49.060,206.169 49.542 C 206.172 50.704,206.299 51.119,206.682 51.219 C 206.927 51.283,207.000 51.453,207.000 51.964 C 207.000 53.108,207.183 53.681,207.599 53.839 C 207.942 53.970,207.990 54.111,208.034 55.118 C 208.077 56.107,208.131 56.271,208.458 56.415 C 208.786 56.558,208.833 56.703,208.833 57.550 C 208.833 58.597,209.038 59.167,209.414 59.167 C 209.580 59.167,209.664 59.423,209.700 60.042 C 209.743 60.794,209.801 60.924,210.112 60.968 C 210.459 61.018,210.596 61.688,210.650 63.583 C 210.677 64.552,210.439 65.500,210.168 65.500 C 209.815 65.500,209.667 65.820,209.667 66.579 C 209.667 67.028,209.589 67.150,209.250 67.235 C 208.883 67.327,208.833 67.429,208.833 68.083 C 208.833 68.738,208.783 68.840,208.417 68.932 C 208.134 69.003,208.000 69.151,208.000 69.395 C 208.000 69.608,207.847 69.821,207.625 69.919 C 207.373 70.029,207.200 70.307,207.099 70.765 C 206.960 71.389,206.889 71.460,206.265 71.599 C 205.812 71.699,205.529 71.873,205.422 72.118 C 205.291 72.415,205.101 72.494,204.422 72.534 C 203.697 72.577,203.576 72.634,203.530 72.958 C 203.449 73.529,201.718 73.529,201.637 72.958 C 201.588 72.615,201.483 72.579,200.409 72.535 C 199.278 72.489,199.228 72.468,199.049 71.993 C 198.879 71.545,198.792 71.500,198.098 71.500 C 197.390 71.500,197.333 71.469,197.333 71.076 C 197.333 70.656,197.321 70.653,196.125 70.701 L 194.917 70.750 194.917 71.917 C 194.917 73.000,194.944 73.087,195.292 73.137 C 195.666 73.190,195.667 73.197,195.667 76.415 C 195.667 80.194,195.649 80.119,196.589 80.260 C 197.162 80.345,197.325 80.444,197.366 80.726 L 197.417 81.083 203.917 81.083 L 210.417 81.083 210.470 80.708 C 210.518 80.367,210.613 80.333,211.523 80.333 C 212.599 80.333,213.167 80.131,213.167 79.747 C 213.167 79.615,213.354 79.459,213.583 79.402 C 213.879 79.328,214.000 79.184,214.000 78.907 C 214.000 78.554,214.083 78.513,214.875 78.467 C 215.629 78.424,215.757 78.366,215.802 78.052 C 215.834 77.828,215.992 77.667,216.212 77.635 C 216.434 77.603,216.606 77.426,216.667 77.167 C 216.728 76.903,216.899 76.730,217.132 76.697 C 217.454 76.650,217.500 76.542,217.500 75.833 C 217.500 75.072,217.528 75.019,217.958 74.969 C 218.276 74.933,218.432 74.809,218.467 74.565 C 218.495 74.371,218.701 74.129,218.925 74.026 C 219.269 73.870,219.333 73.724,219.333 73.098 C 219.333 72.456,219.384 72.349,219.708 72.303 C 220.035 72.257,220.090 72.137,220.134 71.375 C 220.179 70.581,220.220 70.500,220.578 70.500 C 220.946 70.500,220.979 70.420,221.088 69.259 C 221.191 68.162,221.245 68.012,221.560 67.967 C 221.864 67.924,221.924 67.789,221.967 67.052 C 222.010 66.307,222.067 66.180,222.383 66.135 C 222.694 66.091,222.758 65.962,222.801 65.283 C 222.837 64.715,222.934 64.452,223.134 64.378 C 223.581 64.214,223.661 63.986,223.664 62.875 C 223.667 61.888,223.688 61.833,224.066 61.833 C 224.513 61.833,224.667 61.560,224.667 60.763 C 224.667 60.346,224.763 60.176,225.083 60.030 C 225.436 59.870,225.500 59.728,225.500 59.105 C 225.500 58.459,225.551 58.357,225.917 58.265 C 226.288 58.172,226.333 58.074,226.333 57.370 C 226.333 56.710,226.395 56.552,226.708 56.415 C 227.036 56.271,227.090 56.107,227.133 55.125 C 227.179 54.070,227.206 54.000,227.573 54.000 C 228.027 54.000,228.167 53.724,228.167 52.831 C 228.167 52.293,228.227 52.181,228.542 52.137 C 228.862 52.091,228.924 51.967,228.968 51.284 C 229.011 50.613,229.084 50.460,229.426 50.330 C 229.772 50.198,229.833 50.066,229.833 49.448 C 229.833 48.845,229.901 48.689,230.226 48.541 C 230.628 48.358,230.828 47.702,230.831 46.553 C 230.833 46.131,230.910 46.012,231.208 45.970 C 231.527 45.925,231.591 45.800,231.634 45.135 C 231.676 44.477,231.741 44.346,232.050 44.302 C 232.367 44.257,232.424 44.131,232.467 43.375 C 232.513 42.571,232.551 42.500,232.925 42.500 C 233.304 42.500,233.333 42.440,233.333 41.670 C 233.333 40.931,233.378 40.829,233.736 40.739 C 234.071 40.654,234.158 40.500,234.251 39.825 C 234.330 39.255,234.452 38.985,234.662 38.918 C 234.992 38.813,235.167 38.173,235.167 37.063 C 235.167 36.396,235.202 36.333,235.583 36.333 C 235.971 36.333,236.000 36.277,236.000 35.512 C 236.000 34.786,236.044 34.684,236.375 34.637 C 236.702 34.590,236.756 34.471,236.800 33.708 C 236.846 32.917,236.888 32.833,237.239 32.833 C 237.663 32.833,237.827 32.475,237.831 31.542 C 237.833 31.178,237.914 31.000,238.077 31.000 C 238.457 31.000,238.667 30.441,238.667 29.428 C 238.667 28.555,238.691 28.500,239.075 28.500 C 239.449 28.500,239.487 28.429,239.533 27.625 C 239.576 26.876,239.635 26.743,239.941 26.699 C 240.356 26.640,240.547 25.978,240.320 25.381 L 240.173 24.996 234.212 25.040 L 228.250 25.083 228.200 25.958 C 228.153 26.762,228.116 26.833,227.741 26.833 C 227.363 26.833,227.333 26.894,227.333 27.663 C 227.333 28.400,227.288 28.505,226.935 28.594 C 226.496 28.704,226.333 29.198,226.333 30.426 C 226.333 31.043,226.281 31.151,225.958 31.197 C 225.632 31.243,225.577 31.363,225.533 32.115 C 225.490 32.860,225.433 32.986,225.117 33.031 C 224.783 33.079,224.746 33.192,224.701 34.281 C 224.657 35.372,224.620 35.483,224.285 35.531 C 223.983 35.574,223.889 35.741,223.761 36.458 C 223.645 37.112,223.534 37.333,223.321 37.333 C 222.970 37.333,222.833 37.663,222.833 38.514 C 222.833 38.976,222.762 39.167,222.589 39.167 C 222.211 39.167,222.000 39.724,222.000 40.721 C 222.000 41.552,221.964 41.640,221.583 41.735 C 221.209 41.829,221.167 41.923,221.167 42.670 C 221.167 43.264,221.101 43.500,220.937 43.500 C 220.528 43.500,220.326 43.940,220.221 45.064 C 220.137 45.963,220.065 46.167,219.827 46.167 C 219.442 46.167,219.333 46.496,219.333 47.662 C 219.333 48.556,219.301 48.639,218.917 48.735 C 218.544 48.829,218.500 48.925,218.500 49.643 C 218.500 50.333,218.443 50.473,218.093 50.632 C 217.773 50.778,217.673 50.969,217.622 51.534 C 217.587 51.928,217.545 51.489,217.529 50.560 C 217.501 48.906,217.491 48.867,217.083 48.765 C 216.682 48.664,216.667 48.611,216.667 47.319 C 216.667 45.929,216.492 45.333,216.084 45.333 C 215.904 45.333,215.836 45.025,215.799 44.042 C 215.754 42.846,215.722 42.746,215.375 42.697 C 215.037 42.649,215.000 42.551,214.998 41.697 C 214.994 40.352,214.871 40.000,214.403 40.000 C 214.023 40.000,214.011 39.955,213.964 38.375 C 213.921 36.881,213.887 36.737,213.548 36.588 C 213.222 36.445,213.174 36.283,213.131 35.172 C 213.087 34.014,213.054 33.913,212.708 33.863 C 212.364 33.815,212.333 33.722,212.333 32.752 C 212.333 31.495,212.231 31.167,211.839 31.167 C 211.529 31.167,211.338 30.231,211.335 28.705 C 211.334 28.111,211.265 27.962,210.923 27.806 C 210.547 27.635,210.509 27.514,210.465 26.351 L 210.417 25.083 204.394 25.040 L 198.372 24.996 198.309 25.456 M373.614 25.125 C 373.574 25.194,373.602 25.400,373.676 25.583 C 373.805 25.904,373.810 25.903,373.822 25.554 C 373.828 25.354,373.965 25.157,374.125 25.115 C 374.350 25.056,374.333 25.034,374.052 25.019 C 373.851 25.009,373.654 25.056,373.614 25.125 M376.076 25.145 C 376.412 25.217,376.605 25.383,376.684 25.667 C 376.781 26.016,376.803 26.028,376.817 25.742 C 376.839 25.279,376.522 24.996,376.008 25.020 C 375.608 25.038,375.612 25.046,376.076 25.145 M372.889 30.333 C 372.889 31.021,372.919 31.302,372.955 30.958 C 372.991 30.615,372.991 30.052,372.955 29.708 C 372.919 29.365,372.889 29.646,372.889 30.333 M179.833 32.417 C 179.833 32.826,179.856 32.833,181.167 32.833 L 182.500 32.833 182.500 35.988 C 182.500 39.133,182.499 39.144,182.125 39.197 C 181.629 39.267,181.534 40.007,181.515 43.919 C 181.500 46.866,181.493 46.924,181.125 47.085 C 180.794 47.231,180.744 47.390,180.701 48.448 C 180.657 49.538,180.620 49.650,180.285 49.698 C 179.974 49.742,179.909 49.871,179.867 50.526 C 179.824 51.177,179.755 51.317,179.430 51.398 C 179.112 51.478,179.024 51.642,178.934 52.320 C 178.843 53.005,178.762 53.154,178.454 53.197 C 178.217 53.231,178.064 53.386,178.030 53.625 C 177.992 53.896,177.865 54.000,177.572 54.000 C 177.251 54.000,177.167 54.087,177.167 54.417 C 177.167 54.750,177.083 54.833,176.750 54.833 C 175.965 54.833,175.500 55.053,175.500 55.423 C 175.500 55.568,175.341 55.667,175.104 55.667 C 174.137 55.667,173.667 55.864,173.667 56.271 C 173.667 56.866,171.056 56.893,170.970 56.298 C 170.907 55.867,170.453 55.707,169.220 55.683 C 168.457 55.669,168.350 55.623,168.303 55.292 C 168.270 55.056,168.116 54.898,167.891 54.865 C 167.675 54.835,167.492 54.656,167.432 54.419 C 167.371 54.175,167.189 54.003,166.958 53.970 C 166.717 53.936,166.564 53.783,166.530 53.542 C 166.492 53.270,166.365 53.167,166.072 53.167 C 165.722 53.167,165.667 53.089,165.667 52.597 C 165.667 51.812,165.520 51.500,165.149 51.500 C 164.878 51.500,164.833 51.372,164.833 50.594 C 164.833 49.522,164.607 48.833,164.254 48.833 C 163.768 48.833,163.887 43.373,164.375 43.303 C 164.718 43.255,164.754 43.150,164.798 42.065 C 164.842 40.991,164.885 40.863,165.257 40.694 C 165.599 40.538,165.667 40.390,165.667 39.793 C 165.667 39.212,165.737 39.048,166.042 38.915 C 166.307 38.798,166.441 38.566,166.500 38.118 C 166.561 37.657,166.696 37.431,167.000 37.281 C 167.229 37.168,167.441 36.908,167.470 36.704 C 167.508 36.437,167.637 36.333,167.928 36.333 C 168.249 36.333,168.333 36.247,168.333 35.917 C 168.333 35.583,168.417 35.500,168.750 35.500 C 169.083 35.500,169.167 35.417,169.167 35.083 C 169.167 34.751,169.250 34.667,169.580 34.667 C 169.880 34.667,170.022 34.554,170.096 34.258 C 170.184 33.909,170.310 33.843,170.974 33.800 C 171.682 33.754,171.755 33.710,171.803 33.292 L 171.855 32.833 173.594 32.833 L 175.333 32.833 175.333 32.417 L 175.333 32.000 177.583 32.000 L 179.833 32.000 179.833 32.417 M377.125 34.118 C 377.331 34.157,377.669 34.157,377.875 34.118 C 378.081 34.078,377.912 34.045,377.500 34.045 C 377.087 34.045,376.919 34.078,377.125 34.118 M373.205 36.000 C 373.205 36.321,373.240 36.452,373.282 36.292 C 373.323 36.131,373.323 35.869,373.282 35.708 C 373.240 35.548,373.205 35.679,373.205 36.000 M367.052 39.083 C 367.053 39.633,367.084 39.838,367.121 39.539 C 367.158 39.239,367.157 38.789,367.119 38.539 C 367.081 38.288,367.051 38.533,367.052 39.083 M374.377 38.620 C 374.631 38.658,375.006 38.657,375.211 38.617 C 375.416 38.578,375.208 38.546,374.750 38.548 C 374.292 38.549,374.124 38.581,374.377 38.620 M383.295 44.287 C 383.594 44.325,384.044 44.324,384.295 44.286 C 384.545 44.248,384.300 44.217,383.750 44.218 C 383.200 44.219,382.995 44.250,383.295 44.287 " stroke="none" fill="#8c8c8c" fill-rule="evenodd"></path><path id="path2" d="M377.447 25.785 C 377.394 25.871,377.452 26.136,377.576 26.376 C 377.965 27.125,378.030 27.730,377.760 28.087 C 377.623 28.268,377.508 28.568,377.505 28.754 C 377.502 28.939,377.270 29.369,376.990 29.710 C 376.584 30.202,376.490 30.457,376.531 30.956 L 376.583 31.583 378.167 31.667 C 380.171 31.772,380.833 32.144,380.833 33.166 C 380.833 34.330,380.483 34.482,377.667 34.542 L 375.750 34.583 375.695 35.062 C 375.599 35.901,375.794 36.396,376.100 36.090 C 376.484 35.706,379.586 35.719,379.802 36.105 C 379.886 36.254,380.319 36.498,380.765 36.646 C 381.479 36.884,381.598 36.992,381.750 37.541 C 381.845 37.884,382.090 38.282,382.295 38.425 C 382.499 38.568,382.667 38.820,382.667 38.984 C 382.667 39.147,382.855 39.499,383.084 39.766 C 383.314 40.032,383.543 40.377,383.593 40.533 C 383.846 41.324,384.606 41.833,385.531 41.833 L 386.428 41.833 386.607 40.498 C 386.712 39.713,386.899 39.037,387.060 38.859 C 387.477 38.399,387.445 35.878,387.013 35.135 C 386.837 34.831,386.642 34.156,386.579 33.635 C 386.506 33.032,386.350 32.583,386.152 32.403 C 385.980 32.248,385.791 31.863,385.732 31.547 C 385.673 31.232,385.519 30.933,385.389 30.883 C 385.260 30.834,385.036 30.558,384.891 30.271 C 384.557 29.608,382.372 27.528,381.871 27.395 C 381.662 27.340,381.420 27.162,381.333 27.000 C 381.247 26.838,380.892 26.653,380.546 26.589 C 380.200 26.525,379.767 26.334,379.583 26.164 C 379.215 25.823,377.600 25.536,377.447 25.785 M371.428 26.155 C 371.268 26.331,370.829 26.528,370.451 26.592 C 370.025 26.664,369.648 26.857,369.454 27.104 C 369.283 27.322,369.047 27.500,368.930 27.500 C 368.621 27.500,366.106 30.002,365.872 30.542 C 365.763 30.794,365.569 31.000,365.442 31.000 C 365.299 31.000,365.168 31.259,365.102 31.669 C 365.043 32.037,364.850 32.483,364.673 32.660 C 364.286 33.048,363.734 36.839,363.908 37.917 C 363.968 38.283,364.078 39.129,364.153 39.796 C 364.234 40.511,364.401 41.132,364.560 41.307 C 364.708 41.471,364.918 41.863,365.026 42.177 C 365.134 42.492,365.397 42.982,365.611 43.266 C 365.825 43.549,366.000 43.907,366.000 44.062 C 366.000 44.216,366.181 44.410,366.402 44.495 C 366.624 44.579,366.854 44.802,366.914 44.990 C 366.973 45.179,367.132 45.333,367.265 45.333 C 367.398 45.333,367.593 45.521,367.697 45.750 C 367.801 45.979,367.974 46.167,368.081 46.167 C 368.188 46.167,368.448 46.350,368.659 46.575 C 368.869 46.799,369.261 47.031,369.528 47.090 C 369.796 47.148,370.148 47.340,370.311 47.514 C 370.476 47.691,371.046 47.919,371.595 48.027 C 372.139 48.134,372.762 48.359,372.981 48.527 C 373.597 49.002,377.435 48.980,378.047 48.499 C 378.281 48.315,378.835 48.116,379.278 48.057 C 379.734 47.996,380.277 47.789,380.530 47.579 C 380.775 47.375,381.244 47.158,381.571 47.097 C 381.937 47.028,382.167 46.889,382.167 46.737 C 382.167 46.601,382.298 46.442,382.458 46.384 C 382.753 46.276,383.833 45.261,383.833 45.092 C 383.833 45.041,383.575 45.000,383.259 45.000 C 382.600 45.000,382.167 44.530,382.167 43.817 C 382.167 43.573,382.042 43.271,381.890 43.145 C 381.738 43.020,381.484 42.626,381.325 42.271 L 381.035 41.626 380.926 42.126 C 380.865 42.400,380.632 42.797,380.408 43.008 C 380.184 43.219,380.000 43.489,380.000 43.609 C 380.000 43.728,379.813 43.949,379.583 44.099 C 379.354 44.249,379.167 44.473,379.167 44.597 C 379.167 44.720,378.998 44.911,378.792 45.021 C 378.585 45.130,378.325 45.349,378.212 45.507 C 378.100 45.666,377.811 45.845,377.571 45.905 C 377.330 45.965,376.909 46.180,376.636 46.382 C 375.889 46.934,371.737 46.943,371.138 46.394 C 370.925 46.198,370.579 45.986,370.370 45.923 C 370.160 45.859,369.813 45.645,369.598 45.445 C 369.383 45.246,369.006 44.945,368.759 44.776 C 368.513 44.607,368.225 44.269,368.119 44.026 C 368.013 43.782,367.756 43.418,367.547 43.216 C 367.322 42.999,367.167 42.651,367.167 42.364 C 367.167 42.097,367.013 41.683,366.826 41.445 C 366.232 40.690,366.171 38.420,366.713 37.300 C 366.949 36.814,367.185 36.214,367.239 35.965 C 367.292 35.717,367.521 35.315,367.746 35.072 C 367.972 34.829,368.198 34.496,368.250 34.333 C 368.302 34.170,368.492 33.997,368.672 33.950 C 368.852 33.903,369.000 33.750,369.000 33.610 C 369.000 33.470,369.150 33.308,369.334 33.250 C 369.518 33.191,369.897 32.952,370.175 32.717 C 370.493 32.450,370.964 32.259,371.437 32.206 C 372.433 32.093,372.499 31.891,372.503 28.947 C 372.505 26.489,372.534 26.344,373.083 26.032 C 373.366 25.872,373.287 25.843,372.567 25.838 C 371.936 25.835,371.644 25.916,371.428 26.155 M54.879 28.000 C 54.879 28.412,54.911 28.581,54.951 28.375 C 54.991 28.169,54.991 27.831,54.951 27.625 C 54.911 27.419,54.879 27.587,54.879 28.000 M23.971 32.958 C 27.300 32.984,32.700 32.984,35.971 32.958 C 39.241 32.933,36.517 32.912,29.917 32.912 C 23.317 32.912,20.641 32.933,23.971 32.958 M85.705 35.167 C 85.705 35.487,85.740 35.619,85.782 35.458 C 85.823 35.298,85.823 35.035,85.782 34.875 C 85.740 34.715,85.705 34.846,85.705 35.167 M371.167 35.750 C 371.080 35.979,370.892 36.167,370.750 36.167 C 370.608 36.167,370.416 36.367,370.323 36.611 C 370.230 36.856,370.025 37.150,369.868 37.264 C 369.328 37.659,369.355 41.160,369.903 41.751 C 370.140 42.006,370.333 42.282,370.333 42.363 C 370.333 42.643,371.489 43.667,371.805 43.667 C 371.979 43.667,372.333 43.833,372.591 44.036 C 373.214 44.526,374.513 44.531,375.333 44.046 C 375.654 43.856,376.104 43.645,376.333 43.577 C 376.563 43.508,376.848 43.313,376.968 43.143 C 377.088 42.973,377.290 42.833,377.418 42.833 C 377.546 42.833,377.723 42.572,377.811 42.253 C 377.900 41.933,378.128 41.473,378.319 41.230 C 378.571 40.909,378.667 40.548,378.667 39.911 L 378.667 39.034 375.859 38.975 C 372.370 38.902,372.500 38.983,372.500 36.896 L 372.500 35.333 371.913 35.333 C 371.439 35.333,371.294 35.414,371.167 35.750 M85.705 45.667 C 85.705 45.987,85.740 46.119,85.782 45.958 C 85.823 45.798,85.823 45.535,85.782 45.375 C 85.740 45.215,85.705 45.346,85.705 45.667 M71.539 53.500 C 71.539 53.821,71.573 53.952,71.615 53.792 C 71.657 53.631,71.657 53.369,71.615 53.208 C 71.573 53.048,71.539 53.179,71.539 53.500 M134.048 54.250 C 134.049 54.708,134.081 54.876,134.120 54.623 C 134.158 54.369,134.157 53.994,134.117 53.789 C 134.078 53.584,134.046 53.792,134.048 54.250 " stroke="none" fill="#fbf9f9" fill-rule="evenodd"></path><path id="path3" d="M376.647 25.287 C 377.496 26.904,377.426 28.378,376.445 29.544 C 375.890 30.203,375.764 30.489,375.703 31.228 C 375.614 32.304,375.663 32.328,377.940 32.331 C 379.844 32.334,380.429 32.652,379.994 33.448 C 379.712 33.965,379.024 34.117,376.812 34.150 C 375.433 34.171,375.265 34.339,375.369 35.589 C 375.461 36.710,375.619 36.907,376.234 36.673 C 377.998 36.002,381.463 36.959,381.494 38.125 C 381.498 38.240,381.648 38.482,381.829 38.663 C 382.011 38.844,382.275 39.238,382.416 39.538 C 383.266 41.343,384.246 42.325,385.233 42.361 C 385.655 42.376,386.121 42.395,386.270 42.403 C 387.086 42.445,388.023 36.852,387.524 34.917 C 387.050 33.078,386.091 30.882,385.351 29.940 C 384.597 28.981,383.014 27.427,382.500 27.141 C 380.071 25.789,379.492 25.535,378.417 25.349 C 377.775 25.238,377.079 25.112,376.871 25.069 C 376.552 25.004,376.516 25.038,376.647 25.287 M372.167 25.402 C 371.312 25.599,370.137 26.151,368.610 27.071 C 366.724 28.209,364.399 31.322,363.928 33.340 C 363.808 33.854,363.614 34.454,363.497 34.673 C 363.091 35.431,363.081 37.991,363.478 39.299 C 363.674 39.942,363.833 40.570,363.833 40.693 C 363.833 41.618,365.636 44.385,367.254 45.942 C 370.352 48.925,376.060 50.242,379.138 48.684 C 379.474 48.513,379.993 48.322,380.290 48.258 C 380.587 48.193,380.876 48.066,380.933 47.973 C 380.990 47.881,381.347 47.668,381.727 47.499 C 382.665 47.083,384.441 45.374,384.542 44.792 C 384.620 44.338,384.610 44.333,383.718 44.333 C 382.831 44.333,382.812 44.323,382.569 43.708 C 382.080 42.476,381.282 41.080,381.072 41.092 C 380.987 41.097,380.611 41.640,380.237 42.299 C 379.624 43.379,379.082 44.047,377.960 45.105 C 377.753 45.301,377.295 45.553,376.942 45.665 C 376.590 45.778,376.102 45.974,375.859 46.101 C 375.069 46.513,372.735 46.405,371.487 45.900 C 365.229 43.363,365.742 34.260,372.250 32.387 L 372.750 32.243 372.843 29.542 C 372.929 27.027,372.961 26.813,373.315 26.437 C 374.170 25.526,373.652 25.060,372.167 25.402 M379.583 26.164 C 379.767 26.334,380.200 26.525,380.546 26.589 C 380.892 26.653,381.247 26.838,381.333 27.000 C 381.420 27.162,381.662 27.340,381.871 27.395 C 382.372 27.528,384.557 29.608,384.891 30.271 C 385.036 30.558,385.260 30.834,385.389 30.883 C 385.519 30.933,385.673 31.232,385.732 31.547 C 385.791 31.863,385.980 32.248,386.152 32.403 C 386.350 32.583,386.506 33.032,386.579 33.635 C 386.642 34.156,386.837 34.831,387.013 35.135 C 387.445 35.878,387.477 38.399,387.060 38.859 C 386.899 39.037,386.712 39.713,386.607 40.498 L 386.428 41.833 385.531 41.833 C 384.606 41.833,383.846 41.324,383.593 40.533 C 383.543 40.377,383.314 40.032,383.084 39.766 C 382.855 39.499,382.667 39.147,382.667 38.984 C 382.667 38.820,382.499 38.568,382.295 38.425 C 382.090 38.282,381.845 37.884,381.750 37.541 C 381.598 36.992,381.479 36.884,380.765 36.646 C 380.319 36.498,379.886 36.254,379.802 36.105 C 379.586 35.719,376.484 35.706,376.100 36.090 C 375.794 36.396,375.599 35.901,375.695 35.062 L 375.750 34.583 377.667 34.542 C 380.483 34.482,380.833 34.330,380.833 33.166 C 380.833 32.144,380.171 31.772,378.167 31.667 L 376.583 31.583 376.531 30.956 C 376.490 30.457,376.584 30.202,376.990 29.710 C 377.270 29.369,377.502 28.939,377.505 28.754 C 377.508 28.568,377.623 28.268,377.760 28.087 C 378.030 27.730,377.965 27.125,377.576 26.376 C 377.452 26.136,377.394 25.871,377.447 25.785 C 377.600 25.536,379.215 25.823,379.583 26.164 M373.083 26.032 C 372.534 26.344,372.505 26.489,372.503 28.947 C 372.499 31.891,372.433 32.093,371.437 32.206 C 370.964 32.259,370.493 32.450,370.175 32.717 C 369.897 32.952,369.518 33.191,369.334 33.250 C 369.150 33.308,369.000 33.470,369.000 33.610 C 369.000 33.750,368.852 33.903,368.672 33.950 C 368.492 33.997,368.302 34.170,368.250 34.333 C 368.198 34.496,367.972 34.829,367.746 35.072 C 367.521 35.315,367.292 35.717,367.239 35.965 C 367.185 36.214,366.949 36.814,366.713 37.300 C 366.171 38.420,366.232 40.690,366.826 41.445 C 367.013 41.683,367.167 42.097,367.167 42.364 C 367.167 42.651,367.322 42.999,367.547 43.216 C 367.756 43.418,368.013 43.782,368.119 44.026 C 368.225 44.269,368.513 44.607,368.759 44.776 C 369.006 44.945,369.383 45.246,369.598 45.445 C 369.813 45.645,370.160 45.859,370.370 45.923 C 370.579 45.986,370.925 46.198,371.138 46.394 C 371.737 46.943,375.889 46.934,376.636 46.382 C 376.909 46.180,377.330 45.965,377.571 45.905 C 377.811 45.845,378.100 45.666,378.212 45.507 C 378.325 45.349,378.585 45.130,378.792 45.021 C 378.998 44.911,379.167 44.720,379.167 44.597 C 379.167 44.473,379.354 44.249,379.583 44.099 C 379.813 43.949,380.000 43.728,380.000 43.609 C 380.000 43.489,380.184 43.219,380.408 43.008 C 380.632 42.797,380.865 42.400,380.926 42.126 L 381.035 41.626 381.325 42.271 C 381.484 42.626,381.738 43.020,381.890 43.145 C 382.042 43.271,382.167 43.573,382.167 43.817 C 382.167 44.530,382.600 45.000,383.259 45.000 C 383.575 45.000,383.833 45.041,383.833 45.092 C 383.833 45.261,382.753 46.276,382.458 46.384 C 382.298 46.442,382.167 46.601,382.167 46.737 C 382.167 46.889,381.937 47.028,381.571 47.097 C 381.244 47.158,380.775 47.375,380.530 47.579 C 380.277 47.789,379.734 47.996,379.278 48.057 C 378.835 48.116,378.281 48.315,378.047 48.499 C 377.435 48.980,373.597 49.002,372.981 48.527 C 372.762 48.359,372.139 48.134,371.595 48.027 C 371.046 47.919,370.476 47.691,370.311 47.514 C 370.148 47.340,369.796 47.148,369.528 47.090 C 369.261 47.031,368.869 46.799,368.659 46.575 C 368.448 46.350,368.188 46.167,368.081 46.167 C 367.974 46.167,367.801 45.979,367.697 45.750 C 367.593 45.521,367.398 45.333,367.265 45.333 C 367.132 45.333,366.973 45.179,366.914 44.990 C 366.854 44.802,366.624 44.579,366.402 44.495 C 366.181 44.410,366.000 44.216,366.000 44.062 C 366.000 43.907,365.825 43.549,365.611 43.266 C 365.397 42.982,365.134 42.492,365.026 42.177 C 364.918 41.863,364.708 41.471,364.560 41.307 C 364.401 41.132,364.234 40.511,364.153 39.796 C 364.078 39.129,363.968 38.283,363.908 37.917 C 363.734 36.839,364.286 33.048,364.673 32.660 C 364.850 32.483,365.043 32.037,365.102 31.669 C 365.168 31.259,365.299 31.000,365.442 31.000 C 365.569 31.000,365.763 30.794,365.872 30.542 C 366.106 30.002,368.621 27.500,368.930 27.500 C 369.047 27.500,369.283 27.322,369.454 27.104 C 369.648 26.857,370.025 26.664,370.451 26.592 C 370.829 26.528,371.268 26.331,371.428 26.155 C 371.644 25.916,371.936 25.835,372.567 25.838 C 373.287 25.843,373.366 25.872,373.083 26.032 M371.643 34.928 C 368.502 36.526,368.017 41.289,370.765 43.541 C 372.404 44.884,374.737 45.217,376.119 44.304 C 376.466 44.074,376.954 43.762,377.204 43.609 C 378.054 43.089,378.844 41.598,378.952 40.310 C 379.103 38.515,379.040 38.478,375.912 38.536 C 372.579 38.598,372.682 38.681,373.095 36.292 C 373.348 34.829,372.817 34.330,371.643 34.928 M372.500 36.896 C 372.500 38.983,372.370 38.902,375.859 38.975 L 378.667 39.034 378.667 39.911 C 378.667 40.548,378.571 40.909,378.319 41.230 C 378.128 41.473,377.900 41.933,377.811 42.253 C 377.723 42.572,377.546 42.833,377.418 42.833 C 377.290 42.833,377.088 42.973,376.968 43.143 C 376.848 43.313,376.563 43.508,376.333 43.577 C 376.104 43.645,375.654 43.856,375.333 44.046 C 374.513 44.531,373.214 44.526,372.591 44.036 C 372.333 43.833,371.979 43.667,371.805 43.667 C 371.489 43.667,370.333 42.643,370.333 42.363 C 370.333 42.282,370.140 42.006,369.903 41.751 C 369.355 41.160,369.328 37.659,369.868 37.264 C 370.025 37.150,370.230 36.856,370.323 36.611 C 370.416 36.367,370.608 36.167,370.750 36.167 C 370.892 36.167,371.080 35.979,371.167 35.750 C 371.294 35.414,371.439 35.333,371.913 35.333 L 372.500 35.333 372.500 36.896 " stroke="none" fill="#ecc4cc" fill-rule="evenodd"></path><path id="path4" d="M372.667 24.571 C 371.926 25.012,371.488 25.167,370.981 25.167 C 370.665 25.167,370.344 25.318,370.098 25.583 C 369.886 25.813,369.551 26.000,369.354 26.000 C 369.158 26.000,368.762 26.225,368.474 26.500 C 368.186 26.775,367.875 27.000,367.784 27.000 C 367.692 27.000,367.217 27.412,366.729 27.917 C 366.240 28.421,365.764 28.833,365.670 28.833 C 365.577 28.833,365.500 28.949,365.500 29.091 C 365.500 29.233,365.318 29.518,365.095 29.725 C 364.872 29.931,364.638 30.321,364.574 30.592 C 364.510 30.862,364.308 31.203,364.125 31.350 C 363.914 31.519,363.740 31.941,363.651 32.503 C 363.574 32.991,363.445 33.434,363.364 33.487 C 362.511 34.046,362.506 40.283,363.357 40.843 C 363.435 40.893,363.565 41.292,363.646 41.728 C 363.727 42.163,363.953 42.689,364.147 42.896 C 364.341 43.102,364.500 43.396,364.500 43.549 C 364.500 43.701,364.688 43.949,364.917 44.099 C 365.146 44.249,365.333 44.478,365.333 44.608 C 365.333 44.979,368.084 47.667,368.463 47.667 C 368.645 47.667,368.911 47.844,369.053 48.060 C 369.226 48.325,369.539 48.490,370.008 48.565 C 370.419 48.631,370.824 48.824,370.996 49.036 C 371.247 49.346,371.499 49.405,372.852 49.466 C 373.781 49.508,374.518 49.624,374.667 49.750 C 375.146 50.158,375.945 50.218,376.192 49.865 C 376.379 49.599,376.677 49.532,377.955 49.471 C 379.227 49.410,379.559 49.337,379.872 49.046 C 380.080 48.852,380.533 48.641,380.879 48.578 C 381.225 48.514,381.603 48.325,381.720 48.159 C 381.836 47.993,382.118 47.810,382.346 47.753 C 382.574 47.696,383.235 47.203,383.815 46.658 C 384.395 46.113,384.935 45.667,385.015 45.667 C 385.095 45.667,385.210 45.460,385.270 45.208 C 385.330 44.956,385.454 44.655,385.546 44.539 C 385.919 44.065,385.203 43.667,383.980 43.667 L 382.845 43.667 382.731 42.811 C 382.649 42.190,382.536 41.935,382.320 41.878 C 382.150 41.834,381.927 41.508,381.802 41.124 C 381.508 40.214,381.069 39.952,380.695 40.462 C 380.542 40.670,380.210 41.112,379.958 41.443 C 379.706 41.775,379.500 42.181,379.500 42.346 C 379.500 42.697,379.242 42.900,378.992 42.745 C 378.884 42.678,378.875 42.563,378.970 42.443 C 379.054 42.337,379.162 41.891,379.208 41.452 C 379.255 41.012,379.422 40.512,379.579 40.339 C 379.857 40.031,379.809 39.333,379.510 39.333 C 379.436 39.333,379.331 39.112,379.277 38.842 C 379.148 38.200,378.584 38.091,375.999 38.210 C 374.926 38.259,373.969 38.250,373.871 38.190 C 373.604 38.025,373.444 37.221,373.653 37.092 C 374.002 36.876,373.880 34.370,373.511 34.173 C 372.997 33.898,371.893 33.964,371.568 34.289 C 371.410 34.448,370.992 34.706,370.640 34.864 C 370.288 35.021,370.000 35.212,370.000 35.288 C 370.000 35.364,369.775 35.672,369.500 35.973 C 369.205 36.296,368.958 36.788,368.896 37.177 C 368.838 37.538,368.737 37.833,368.672 37.833 C 368.121 37.833,367.962 40.629,368.485 41.119 C 368.661 41.282,368.859 41.711,368.926 42.071 C 369.100 43.005,370.874 44.764,371.873 44.995 C 373.588 45.390,376.192 45.142,376.811 44.523 C 377.233 44.100,378.177 44.002,377.833 44.417 C 377.719 44.554,377.494 44.667,377.332 44.667 C 377.171 44.667,377.003 44.805,376.958 44.974 C 376.751 45.769,371.065 45.663,370.528 44.854 C 370.399 44.660,370.150 44.500,369.976 44.500 C 369.787 44.500,369.591 44.324,369.494 44.067 C 369.403 43.829,369.180 43.595,368.998 43.548 C 368.782 43.491,368.667 43.320,368.667 43.056 C 368.667 42.834,368.467 42.452,368.223 42.208 C 367.521 41.506,367.512 37.104,368.211 36.374 C 368.462 36.112,368.667 35.817,368.667 35.717 C 368.667 35.459,370.492 33.667,370.755 33.667 C 370.876 33.667,371.197 33.479,371.470 33.250 C 371.742 33.021,372.128 32.833,372.329 32.833 C 373.423 32.833,374.326 29.588,373.437 28.850 C 373.243 28.689,373.256 28.562,373.520 28.044 C 373.692 27.706,373.833 27.252,373.833 27.035 C 373.833 26.502,374.694 25.667,375.243 25.667 C 376.446 25.667,377.575 28.434,376.488 28.718 C 376.297 28.768,376.104 28.955,376.057 29.134 C 376.010 29.313,375.791 29.542,375.569 29.643 C 375.192 29.815,375.167 29.911,375.167 31.167 C 375.167 32.809,375.204 32.833,377.775 32.833 C 380.206 32.833,380.115 33.208,377.650 33.350 C 375.204 33.490,375.007 33.654,375.002 35.553 C 374.998 37.191,374.956 37.167,377.828 37.167 C 380.165 37.167,380.317 37.186,380.417 37.500 C 380.475 37.684,380.658 37.906,380.823 37.994 C 380.988 38.083,381.165 38.366,381.216 38.624 C 381.268 38.882,381.503 39.301,381.738 39.555 C 381.974 39.809,382.167 40.122,382.167 40.249 C 382.167 40.377,382.305 40.579,382.474 40.699 C 382.644 40.819,382.876 41.203,382.991 41.552 C 383.122 41.952,383.345 42.243,383.593 42.337 C 383.810 42.419,384.128 42.628,384.301 42.801 C 384.497 42.997,384.978 43.157,385.588 43.229 C 386.734 43.364,386.961 43.216,387.113 42.238 C 387.168 41.878,387.350 41.452,387.516 41.292 C 388.195 40.638,388.217 33.678,387.542 32.961 C 387.335 32.741,387.167 32.391,387.167 32.182 C 387.167 31.784,386.680 30.833,386.477 30.833 C 386.413 30.833,386.309 30.604,386.248 30.323 C 386.180 30.013,385.977 29.740,385.734 29.629 C 385.514 29.529,385.333 29.307,385.333 29.136 C 385.333 28.958,385.155 28.757,384.917 28.667 C 384.688 28.580,384.500 28.392,384.500 28.251 C 384.500 28.109,384.313 27.907,384.083 27.803 C 383.854 27.699,383.667 27.511,383.667 27.386 C 383.667 27.262,383.464 27.067,383.216 26.955 C 382.969 26.842,382.597 26.581,382.390 26.375 C 382.166 26.150,381.812 26.000,381.508 26.000 C 381.173 26.000,381.000 25.917,381.000 25.756 C 381.000 25.422,380.472 25.167,379.783 25.167 C 379.443 25.167,379.019 25.015,378.735 24.792 C 378.116 24.304,373.403 24.132,372.667 24.571 M374.125 25.115 C 373.965 25.157,373.833 25.325,373.833 25.489 C 373.833 25.653,373.635 26.079,373.392 26.435 C 372.968 27.059,372.951 27.174,372.934 29.516 C 372.915 32.194,372.848 32.400,371.950 32.546 C 368.709 33.072,366.557 37.247,367.418 41.339 C 368.594 46.931,376.940 48.054,379.763 43.000 C 380.764 41.206,380.904 41.000,381.113 41.000 C 381.234 41.000,381.333 41.062,381.333 41.138 C 381.333 41.214,381.551 41.608,381.818 42.013 C 382.085 42.418,382.388 43.069,382.491 43.458 L 382.680 44.167 383.694 44.167 L 384.708 44.167 384.608 44.708 C 384.433 45.647,381.117 48.333,380.133 48.333 C 380.007 48.333,379.607 48.488,379.244 48.677 C 376.955 49.868,372.280 49.335,369.135 47.525 C 367.122 46.367,363.844 42.219,363.831 40.814 C 363.830 40.687,363.680 40.108,363.498 39.527 C 363.088 38.218,363.055 35.750,363.434 34.750 C 363.573 34.383,363.783 33.708,363.900 33.250 C 364.018 32.792,364.332 32.041,364.599 31.581 C 364.865 31.122,365.233 30.486,365.417 30.169 C 365.840 29.435,367.546 27.748,368.417 27.202 C 368.783 26.972,369.121 26.737,369.167 26.680 C 369.428 26.356,371.585 25.465,372.583 25.268 C 373.706 25.048,374.799 24.939,374.125 25.115 M378.259 25.256 C 381.290 25.824,384.805 28.379,385.932 30.833 C 386.079 31.154,386.310 31.540,386.444 31.692 C 386.578 31.843,386.791 32.330,386.917 32.775 C 387.042 33.220,387.269 33.921,387.421 34.333 C 387.894 35.615,387.677 39.348,387.026 41.142 C 386.434 42.777,386.457 42.745,386.025 42.514 C 385.840 42.414,385.455 42.333,385.169 42.333 C 384.373 42.333,383.706 41.898,383.313 41.122 C 383.116 40.734,382.900 40.379,382.833 40.333 C 382.766 40.287,382.547 39.950,382.347 39.583 C 381.251 37.579,380.826 37.061,380.151 36.913 C 379.887 36.855,379.628 36.738,379.575 36.654 C 379.442 36.438,376.994 36.461,376.355 36.684 C 375.573 36.957,375.333 36.679,375.333 35.500 C 375.333 34.231,375.434 34.170,377.767 34.032 L 379.727 33.917 379.946 33.379 C 380.262 32.600,379.686 32.333,377.689 32.333 C 375.692 32.333,375.667 32.320,375.667 31.245 C 375.667 30.354,375.855 29.999,376.875 28.963 C 377.242 28.590,377.284 26.742,376.937 26.245 C 376.810 26.065,376.678 25.767,376.643 25.585 C 376.603 25.375,376.396 25.213,376.081 25.146 C 374.948 24.903,376.905 25.003,378.259 25.256 M372.898 34.755 C 373.322 35.179,373.406 36.093,373.084 36.772 C 372.870 37.223,372.835 37.508,372.946 37.896 L 373.095 38.417 375.868 38.500 C 378.898 38.591,378.809 38.566,378.987 39.362 C 379.576 41.990,377.030 44.738,374.000 44.745 C 368.585 44.756,366.916 37.430,371.739 34.818 C 372.405 34.457,372.590 34.447,372.898 34.755 M378.618 43.620 C 378.350 43.888,378.333 43.885,378.333 43.563 C 378.333 43.127,378.513 42.947,378.732 43.165 C 378.848 43.281,378.812 43.426,378.618 43.620 M301.078 53.417 C 301.078 58.642,301.099 60.755,301.125 58.113 C 301.151 55.471,301.151 51.196,301.125 48.613 C 301.099 46.030,301.078 48.192,301.078 53.417 " stroke="none" fill="#b44c5c" fill-rule="evenodd"></path></g></svg>